<svg width="1000" height="812" viewBox="0 0 1000 812" fill="none" xmlns="http://www.w3.org/2000/svg">
<path d="M155.299 89.1012L155.899 88.9012L161.699 88.8012L166.599 89.6012L169.199 88.3012L171.999 87.7012L174.299 89.6012L176.599 91.8012L181.299 94.6012L186.399 96.5012L189.199 97.2012L191.799 98.2012L194.299 99.9012L197.099 101.201L199.899 101.501L202.299 100.101L203.399 98.0012L204.899 96.2012L206.799 95.5012L208.099 97.2012L207.899 99.6012L206.799 101.901L206.499 103.301V104.801L206.199 106.001L205.799 107.101L204.899 110.001L204.499 113.101L206.999 117.501L208.699 122.401L208.099 128.001L207.299 130.901L206.999 133.801L209.299 146.301L208.999 152.101L205.599 153.901L200.399 152.201L194.999 153.601L192.299 158.401L192.799 188.201L190.199 200.301L186.899 207.501L186.199 214.901L188.699 217.701L192.099 218.801L195.399 216.701L197.999 213.401L212.399 206.901L213.999 206.501L215.599 206.901L216.799 207.601L217.699 207.301L218.599 207.001L219.699 207.701L220.499 208.901L222.199 208.801L223.699 207.801L226.799 207.201L229.899 208.401L231.099 209.501L232.699 209.801L236.699 208.801L238.399 208.701L239.799 207.901L240.399 206.101L241.699 204.801L243.399 204.701L244.999 205.401L246.799 205.501L251.099 204.901L252.899 206.401L253.999 208.601L260.599 211.501L265.099 212.501L276.599 211.701L277.799 211.001L279.099 210.701L284.699 211.601L287.499 212.601L291.099 216.101L290.699 221.401L288.799 227.201L290.299 229.601L293.199 230.701L298.999 240.001L299.699 251.801L297.399 250.301L294.699 250.401L293.599 251.301L291.699 253.501L290.899 254.701L288.999 256.301L286.299 256.501L283.699 257.201L270.599 262.801L265.599 263.701H257.999L255.999 263.001L254.999 260.301L254.899 257.301L255.399 251.301L254.099 248.701L251.699 247.201L248.999 242.301L247.999 236.501L243.499 233.801L237.999 233.601L215.599 238.201L205.199 242.901L203.999 247.801L208.799 251.401L214.199 253.701L219.999 254.601H221.299L222.299 255.201L222.899 256.601L223.899 257.201L225.999 257.801L226.899 260.001L227.599 263.201L227.799 266.301L224.199 270.901L227.299 274.801L228.999 279.901L226.899 281.501L221.599 283.001L216.499 285.501L211.199 284.801L208.799 285.601L207.499 290.701L207.899 296.501L207.599 299.201L207.999 301.801L211.599 306.501L213.899 311.701L211.999 316.701L209.799 318.401L207.199 319.201L198.499 321.101L195.799 322.001L194.999 324.701V327.701L193.999 329.801L188.799 329.501L186.999 327.901L188.199 322.201L188.599 316.601L186.999 314.801L185.099 313.301L183.899 310.701L183.599 307.701L184.099 302.001L186.899 297.101L195.699 292.101L195.899 290.701L197.799 288.801L198.299 287.701L198.499 286.401V283.501L200.999 269.701L200.899 267.801L195.999 266.301L186.799 260.301L179.099 258.201L171.299 259.401L150.499 259.901L146.499 259.501L138.099 255.501L131.299 251.301L124.399 250.501L123.799 251.101H123.699L122.999 251.201L122.399 251.101L120.599 249.401L106.999 230.101L105.899 228.001L105.699 226.201L107.299 222.101L107.699 220.901L108.599 217.401L113.899 208.401L115.599 206.601L119.499 204.301L120.399 203.401L120.899 201.701L120.499 200.201L119.599 198.701L117.799 196.801L117.499 196.601L117.199 196.401L116.799 195.601L116.599 194.801L116.099 190.401L116.499 189.101L117.299 188.001L118.599 186.701L119.899 184.101L119.499 181.501L117.699 175.801V172.401L119.699 162.201L118.999 142.901L119.299 142.101L135.899 129.601L140.799 124.901L152.899 105.801L155.299 89.1012Z" stroke="#BB5B01" stroke-width="2" stroke-linecap="round" stroke-linejoin="round"/>
<path d="M123.799 251.1L124.399 250.5L131.299 251.3L138.099 255.5L146.499 259.5L150.499 259.9L171.299 259.4L179.099 258.2L186.799 260.3L195.999 266.3L200.899 267.8L200.999 269.7L198.499 283.5V286.4L198.299 287.7L197.799 288.8L195.899 290.7L195.699 292.1L186.899 297.1L184.099 302L183.599 307.7L183.899 310.7L185.099 313.3L186.999 314.8L188.599 316.6L188.199 322.2L186.999 327.9L188.799 329.5L193.999 329.8L194.999 327.7V324.7L195.799 322L198.499 321.1L207.199 319.2L209.799 318.4L211.999 316.7L213.899 311.7L211.599 306.5L207.999 301.8L207.599 299.2L207.899 296.5L207.499 290.7L208.799 285.6L211.199 284.8L216.499 285.5L221.599 283L226.899 281.5L228.999 279.9L227.299 274.8L224.199 270.9L227.799 266.3L227.599 263.2L226.899 260L225.999 257.8L223.899 257.2L222.899 256.6L222.299 255.2L221.299 254.6H219.999L214.199 253.7L208.799 251.4L203.999 247.8L205.199 242.9L215.599 238.2L237.999 233.6L243.499 233.8L247.999 236.5L248.999 242.3L251.699 247.2L254.099 248.7L255.399 251.3L254.899 257.3L254.999 260.3L255.999 263L257.999 263.7H265.599L270.599 262.8L283.699 257.2L286.299 256.5L288.999 256.3L290.899 254.7L291.699 253.5L293.599 251.3L294.699 250.4L297.399 250.3L299.699 251.8L302.999 256.1L308.799 265.9L309.899 271L308.399 271.7L306.899 273.4L306.299 275.4L305.799 281.8L305.899 283.8L307.199 287.6L307.299 288.5L307.199 289.5L306.899 291.2L305.799 293.8L305.599 294.7V296.8L305.499 297.8L304.999 298.8L304.699 300.3L305.199 302.9L307.699 304.7L309.499 307.1L310.799 309.7L313.399 309.3L315.399 307.1L316.999 304.5L320.999 300.2L329.999 293.3L335.399 292.1L337.399 293.5L338.299 295.9L340.699 296.3L346.199 293.7L349.099 293.2L351.999 293.7L353.699 292.4L353.399 289.4L355.899 288.3L358.599 288.5L360.899 289.5L361.599 291L362.099 297.2L363.299 297.5L365.899 296.8L370.099 300.3L370.199 306.5L369.199 309.2L370.899 310.9L376.299 312.9L378.499 314.5L378.399 317.1L376.499 319.5L373.999 321.2L371.599 323.1L369.499 325.6L367.099 327.2L365.299 329.4L368.599 333.8L374.099 336.1L379.699 336.8L390.899 336.6L394.599 339.2L395.999 351.5L395.899 354.3L393.899 355.9L391.599 356.1L389.899 357.4L391.399 359.4L394.199 360.2L395.799 361.6L395.199 363.7L396.299 365.7L398.599 366.8L398.999 369.2L397.299 371.2L396.199 372.2L395.399 373.4L395.199 375L394.799 376.5L390.599 379.5L389.999 382.3L391.499 384.7L392.499 385.3L393.799 387L393.599 388.1L392.799 390.4L393.299 391.6L395.199 391L396.999 391.5L386.299 406.7L385.899 406.8L382.299 404.8L375.199 397.9L370.599 396.4L356.599 397L354.799 397.9L354.499 400L355.199 454.7L355.599 456.1L357.499 459.3L360.899 459.7L359.899 462.8L357.699 464.9L356.099 465.5L354.899 466.7L355.099 468.4L354.699 469.6L353.699 469L352.699 469.8L351.899 471.7L351.399 473.7L350.099 475L349.799 474.5L348.699 473.6V473.1L347.699 472.7L344.899 469.6L341.899 464.8L340.999 463.8L333.499 458.1L332.899 457.8L331.199 454.3L330.199 450.6L329.999 448.4L329.899 447.7L329.599 447L329.199 446.9L328.999 446.3L327.799 443.9L327.699 443.3L327.599 441.9L325.699 438.7L324.799 437.7L323.599 437.1L321.999 436.8L319.199 434.9L318.699 434.5L317.399 434.3L313.999 435L309.799 435.8L309.299 435.6L306.999 433.4L305.799 433L304.699 432.8L296.399 432.9L294.499 433.2L292.099 434.4L291.199 434.6L290.099 434.5L286.699 434L282.699 434.1L281.799 433.8L281.299 433.3L280.499 431.9L279.399 430.4L278.399 428.8L277.799 428.7L276.099 428L275.499 427.9L271.199 427.8L269.999 427.4L268.999 426.6L268.699 426.2L267.999 424.9L267.399 424.1L266.699 423.3L265.099 421.9L264.099 420.6L263.699 420.3L262.699 419.7L261.599 419.3L260.599 419.1L258.199 419L257.199 418.8L256.299 418.3L255.399 417.6L253.999 416.2L253.199 415.6L252.299 415.1L251.199 414.9L246.099 415.2L238.899 414L237.799 413.6L236.899 413L236.299 412L236.199 411.1L236.299 410.3L236.199 409.5L235.899 408.7L234.599 407.3L233.299 405.6L232.199 404.8L228.199 402.9L225.699 401.1L224.299 400.5L224.199 400.1L222.399 399.2L221.399 399H220.299L215.399 400.5L211.999 402.5L208.999 403.4L206.599 403.5L204.499 402.9L203.199 401.4L202.999 399.1L203.399 396.8L203.299 394.7L202.399 393.2L200.299 392.4L196.499 391.7L195.299 391.3L194.099 390.4L193.499 389.4L193.199 388.1V386.6V386.7L193.099 386.8H192.999H192.899L192.999 385.3L192.799 382.4L192.699 381.9L186.099 380.9L180.499 381.6L177.999 377.3L178.099 371.6L178.899 365.4L177.599 360.3L174.999 360.2L173.799 359.5L172.699 358.6L147.199 328.4L145.099 326.6L139.899 325.9L127.799 326.2L121.099 327.5L120.699 327.6L120.899 326.2L120.699 325L119.999 324L114.899 318.7L113.799 316.9L113.699 315.5L115.299 312L117.199 309L117.499 308.1L117.599 306.6L117.799 306.1L118.299 305.4L119.799 303.9L121.299 303.4L122.899 303.7L127.699 306.3L128.899 306.1L130.099 304.6L130.599 303.2V299.2L131.299 297.2L133.299 293.3L133.799 291.3V288.9V287L133.399 284.8L132.699 283.3L131.799 282.7L130.699 282.5L129.699 282.2L128.999 281.4L128.299 278.9L127.899 278L127.299 277.4L126.699 276.8L126.099 276.2L125.699 275.2L125.799 273.9L127.399 269.8L127.499 267.6L125.999 260.7L125.199 259.4L124.599 257.9L124.299 256.4V254.7L125.099 251.7L124.399 251.1H123.799Z" stroke="#BB5B01" stroke-width="2" stroke-linecap="round" stroke-linejoin="round"/>
<path d="M120.698 327.6L121.098 327.5L127.798 326.2L139.898 325.9L145.098 326.6L147.198 328.4L172.698 358.6L173.798 359.5L174.998 360.2L177.598 360.3L178.898 365.4L178.098 371.6L177.998 377.3L180.498 381.6L186.098 380.9L192.698 381.9L192.798 382.4L192.998 385.3L192.898 386.8H192.998H193.098L193.198 386.7V386.6V388.1L193.498 389.4L194.098 390.4L195.298 391.3L196.498 391.7L200.298 392.4L202.398 393.2L203.298 394.7L203.398 396.8L202.998 399.1L203.198 401.4L204.498 402.9L206.598 403.5L208.998 403.4L211.998 402.5L215.398 400.5L220.298 399H221.398L222.398 399.2L224.198 400.1L224.298 400.5L225.698 401.1L228.198 402.9L232.198 404.8L233.298 405.6L234.598 407.3L235.898 408.7L236.198 409.5L236.298 410.3L236.198 411.1L236.298 412L236.898 413L237.798 413.6L238.898 414L246.098 415.2L251.198 414.9L252.298 415.1L253.198 415.6L253.998 416.2L255.398 417.6L256.298 418.3L257.198 418.8L258.198 419L260.598 419.1L261.598 419.3L262.698 419.7L263.698 420.3L264.098 420.6L265.098 421.9L266.698 423.3L267.398 424.1L267.998 424.9L268.698 426.2L268.998 426.6L269.998 427.4L271.198 427.8L275.498 427.9L276.098 428L277.798 428.7L278.398 428.8L279.398 430.4L280.498 431.9L281.298 433.3L281.798 433.8L282.698 434.1L286.698 434L290.098 434.5L291.198 434.6L292.098 434.4L294.498 433.2L296.398 432.9L304.698 432.8L305.798 433L306.998 433.4L309.298 435.6L309.798 435.8L313.998 435L310.798 439.1L307.698 449.8L306.498 457.7L305.798 459.9L304.198 461.8L301.698 462.3L293.398 460.4L282.898 459.9L275.398 458.1L267.798 455.2L263.998 451.5L260.998 450.3L257.598 453.4L248.898 464.2L248.398 466.7L250.598 471.1L251.698 472.4L253.098 473.6L253.798 475L256.898 477.8L261.998 481L262.498 485.6L254.398 485.8L251.698 486.7L250.098 488.6L249.598 491.1L248.698 492.9L247.998 493.1L247.398 492.9L244.198 493.4L242.298 493L239.298 492.8L234.298 489.6L229.598 491L227.998 490.4L227.598 489.1L226.798 488.5L225.598 488.3L221.298 488.9L218.998 487.4L217.398 484.7H214.298L211.298 485.9L206.998 486.3L206.498 486.9L206.398 486.3L204.298 486.8L202.298 487.6L198.098 488.5L193.098 488L188.198 488.3L186.998 487.5L185.698 487.2L184.798 485.7L182.598 478.4L179.798 474L177.798 472.7L176.098 471.1L173.398 467.1L170.798 456.8L168.098 452.8L161.398 437.8L160.398 433.1L161.298 428.5L162.998 426.9L164.198 424.9L166.098 423L168.598 421.5L171.198 417.8L169.898 414.8L166.198 417.1L164.098 417.2L158.598 415.9L149.598 412.7L146.198 410.9L143.298 408.4L141.598 405L139.398 402.2L135.998 400.7L132.298 401L128.898 403.5L126.998 407.2L126.298 412.2L124.798 413.8L123.098 415.1L107.498 423L104.198 425.5L101.198 427L97.7984 429.6L88.7984 433.6L87.8984 433.8L87.0984 432.9L86.1984 432.4L85.4984 431.6L84.2984 431.3L83.0984 431.5L81.3984 432L79.6984 433L76.5984 435.7L75.0984 436.6L73.8984 437.6L73.3984 438.4L71.5984 439L67.4984 442.4L66.0984 444.1L64.2984 445.4L58.2984 446.8L56.7984 446.6H55.2984L51.3984 450.1L50.8984 450.5L49.3984 431.8V431.7V430.9L49.7984 430.3L51.0984 429.8L51.4984 429.4L51.5984 428.7L51.1984 427.5L51.0984 426.8L51.3984 425.6L52.3984 423.4V422.3L52.0984 421.7L51.6984 421.6L51.3984 421.4L51.2984 420.8L51.4984 420.7L52.2984 419.4L52.4984 418.9L52.9984 416.8L53.0984 411.9L52.8984 409.9L58.6984 410.4L59.6984 410.2L60.4984 409.7L61.0984 409L61.8984 408.5L62.6984 408.3H65.0984L65.8984 408.4L66.6984 408.8L67.4984 409.3L68.1984 409.6H69.0984L74.2984 408.3L76.0984 407L77.2984 404.6L79.7984 396.7L81.3984 393.7L81.7984 392.1L81.8984 387.1L81.5984 385.9L80.5984 383.4L80.0984 381.3L80.3984 379.2L81.8984 376.8L82.3984 376.4L83.5984 376L84.1984 375.5L88.7984 369.4L88.8984 369L88.4984 368L88.3984 367.5L88.9984 365.6L90.1984 365.2L91.6984 365.5L92.9984 365.6L95.4984 364.2L95.9984 362.2L95.3984 359.9L94.4984 357.5L94.1984 356L94.3984 354.2L95.0984 352.7L96.2984 351.8L101.698 349.5L104.698 348.8L109.198 349.3L110.598 348L112.598 344.3L114.998 341.4L115.798 339.9L116.298 333.3L116.798 332L117.898 330.9L118.998 330.4L119.998 329.7L120.698 328V327.6Z" stroke="#BB5B01" stroke-width="2" stroke-linecap="round" stroke-linejoin="round"/>
<path d="M45.5 499L46 498.7L52.6 494.1L59.9 494.3L61.8 497.9L62.2 506.5L63.5 510.6L65.6 511L66.4 507L67.5 503.7L70.3 503.6L70.8 510.4L68 518.1L68.1 519.7L69.6 523.7L72.7 526.3L75.2 529.5L78.6 535.7L84 540.6L88.1 542L92.4 541.8L95.4 539.2L98.5 531.6L101.6 529.5L104.4 531.6L105.7 535.3L107.9 536.6L110.1 535.4L112.4 534.4L119.9 534.6L122.5 538.3V542.5L122.7 543.9L124.9 545.5L127.1 546.7L127.6 548V549.5L127.8 550.7L128.3 551.8L129.2 556.3L126.4 560.2L124.3 563.7L128.9 563.9L138.2 562.7L142.9 561.5L145 560.1L147.4 559.3L149.7 559.1L152 558.7L157.3 556.1L158.9 559.4L159.5 562.8L162.6 562.4L165.5 560.6L169 560.5L171.5 562.6L172.4 564.5L173.1 566.4L173.3 567.7L173.7 568.8L175.9 568.9L178.5 567.4L180.1 567.9L181.8 568L183 567.4L184.4 567L187.5 566.7L188.7 568.2L186.9 578.2L185.5 580.1L178.7 585.1L174.9 589.1L173.1 594.2L173 596.5L174.1 598.5L175.2 599.2L177.6 600L178.8 600.2L182.7 600.3L186 598.3L187.2 596.5L189.1 595.6L190.5 597.6V603L191.2 606.6L191 607.6L190.2 608.6L189 609L185.1 611.8L182.6 612.1L181.4 612.6L182.7 614.1H185L189.2 615.9L189.3 618L188.1 619.4L183.6 619L183.5 619.1L176.9 616.2L172 615.3L172.1 615.1L172.4 613L172.3 611L170.2 610.3L165.9 610.1L164.1 610.5L162.8 609.7L161.8 608.8L159.6 608.2L157.9 607.1L157.8 605.2L162.1 602.8L162.8 601.2L162 599.6L159.9 598.8L157.4 599.4L155.1 600.9L152.8 602.1L150.6 600.3V599.4L149.8 597.5L150.4 595.6L152.3 594.2L153.1 592.2L148.6 591L104.3 591.2L103.7 591.9L103.4 593L102.5 594.3L101 594.5L98.3 594.4L96.6 592.2L93.1 590.4L91.3 589.8L89 590.8L88.5 591.9L87.4 595.8L86.2 597L85.1 598.6L84.3 602.3L83.2 603.6L78.7 604.2L62.2 603.5L61.4 603.9V605L60 606.6L57.9 608L56 608.1L54.1 607.4L51.5 607.7L49 607.5L48.5 607.4L48.8 605.9L49.1 605.1L50.5 601L50.6 599.4L50 596.2V594.6L50.9 593L52.2 591.8L53.2 591.2L53.6 590.3L53.3 586.8L53.2 586L52.8 585.7L51.8 585.6L51 585.3L50.4 584.9L49.8 584.1L49.4 582.6L49.6 580.9L50.4 577.7L50.1 574.5L49 571.6L48.8 568.8L50.8 566.1L51.6 565.7L52.6 565.4L53.4 565L53.7 564.1L53.2 563.4L51.3 561.8L50.6 561L50.3 560L50.4 559.4L50.7 558.9L51.4 557.5L52 556.7L52.3 556L52.4 554.9L50.8 536.1L51 535.3L51.5 535H52.3L54 535.3L54.2 535.1L54.3 534.7L54.4 534L54.6 530.8L53 528L50.7 525.3L49.2 522.5L48.8 519.5L49 517L49.7 506.7L49.5 505.6L48.8 504.5L47 502.5L46.2 500.3L45.5 499.3V499Z" stroke="#BB5B01" stroke-width="2" stroke-linecap="round" stroke-linejoin="round"/>
<path d="M50.9 450.501L51.4 450.101L55.3 446.601H56.8L58.3 446.801L64.3 445.401L66.1 444.101L67.5 442.401L71.6 439.001L73.4 438.401L73.9 437.601L75.1 436.601L76.6 435.701L79.7 433.001L81.4 432.001L83.1 431.501L84.3 431.301L85.5 431.601L86.2 432.401L87.1 432.901L87.9 433.801L88.8 433.601L97.8 429.601L101.2 427.001L104.2 425.501L107.5 423.001L123.1 415.101L124.8 413.801L126.3 412.201L127 407.201L128.9 403.501L132.3 401.001L136 400.701L139.4 402.201L141.6 405.001L143.3 408.401L146.2 410.901L149.6 412.701L158.6 415.901L164.1 417.201L166.2 417.101L169.9 414.801L171.2 417.801L168.6 421.501L166.1 423.001L164.2 424.901L163 426.901L161.3 428.501L160.4 433.101L161.4 437.801L168.1 452.801L170.8 456.801L173.4 467.101L176.1 471.101L177.8 472.701L179.8 474.001L182.6 478.401L184.8 485.701L185.7 487.201L187 487.501L188.2 488.301L188.8 490.901L188.6 493.501L188 494.501L187.6 494.901L185.9 495.201L184.6 495.701L183.2 496.601L181.9 497.701L181.7 497.401L181.1 498.001L180.6 498.701L180.2 499.101L178 500.701L176.4 502.301L173.3 501.701L170.6 497.201L168.5 495.301L166.1 494.401L164.5 496.101L163.1 498.101L162.3 498.701L161.6 499.401L161.7 501.101L157.8 503.901L152.7 502.501L151.4 506.001L151.2 511.001L150.8 513.201L150.1 515.401L148.8 517.301L148.7 519.601L150.3 521.301L152.4 522.601L154 524.701L155.3 527.101L156.7 529.001L157.2 531.101L152 558.701L149.7 559.101L147.4 559.301L145 560.101L142.9 561.501L138.2 562.701L128.9 563.901L124.3 563.701L126.4 560.201L129.2 556.301L128.3 551.801L127.8 550.701L127.6 549.501V548.001L127.1 546.701L124.9 545.501L122.7 543.901L122.5 542.501V538.301L119.9 534.601L112.4 534.401L110.1 535.401L107.9 536.601L105.7 535.301L104.4 531.601L101.6 529.501L98.5 531.601L95.4 539.201L92.4 541.801L88.1 542.001L84 540.601L78.6 535.701L75.2 529.501L72.7 526.301L69.6 523.701L68.1 519.701L68 518.101L70.8 510.401L70.3 503.601L67.5 503.701L66.4 507.001L65.6 511.001L63.5 510.601L62.2 506.501L61.8 497.901L59.9 494.301L52.6 494.101L46 498.701L45.5 499.001V498.701L45.6 498.101L46.4 496.701L46.7 496.001L47 491.101L47.9 486.301L48.1 481.701L48.3 480.301L48.9 479.001L49.7 477.801L50.3 476.301V474.701L49.8 473.001L48.3 469.901L47.7 468.201L47.4 466.301L47.5 464.901L48.1 461.701V461.001L47.9 459.601V458.901L48.3 457.901L49.8 456.201L50.4 455.301L51 452.701L50.9 450.501Z" stroke="#BB5B01" stroke-width="2" stroke-linecap="round" stroke-linejoin="round"/>
<path d="M48.4984 607.401L48.9984 607.501L51.4984 607.701L54.0984 607.401L55.9984 608.101L57.8984 608.001L59.9984 606.601L61.3984 605.001V603.901L62.1984 603.501L78.6984 604.201L83.1984 603.601L84.2984 602.301L85.0984 598.601L86.1984 597.001L87.3984 595.801L88.4984 591.901L88.9984 590.801L91.2984 589.801L93.0984 590.401L96.5984 592.201L98.2984 594.401L100.998 594.501L102.498 594.301L103.398 593.001L103.698 591.901L104.298 591.201L148.598 591.001L153.098 592.201L152.298 594.201L150.398 595.601L149.798 597.501L150.598 599.401V600.301L152.798 602.101L155.098 600.901L157.398 599.401L159.898 598.801L161.998 599.601L162.798 601.201L162.098 602.801L157.798 605.201L157.898 607.101L159.598 608.201L161.798 608.801L162.798 609.701L164.098 610.501L165.898 610.101L170.198 610.301L172.298 611.001L172.398 613.001L172.098 615.101L171.998 615.301L155.698 612.301L136.298 610.701L103.998 612.301L102.298 612.001L101.398 611.301L100.598 610.501L99.4984 609.701L100.198 609.301L100.798 609.201L101.198 609.301L101.698 609.701L102.798 608.601L103.298 609.001L103.398 610.201L103.698 611.301L106.398 608.801L106.798 608.901L107.098 609.501H107.698L108.698 609.201L110.098 609.101L111.398 608.901L112.598 608.301L113.598 607.101L113.698 606.201L113.598 605.401V604.701L114.398 604.501H117.498L119.098 604.101L122.398 603.101L123.398 603.401L125.098 602.701L126.598 601.801L127.698 600.601L128.098 599.001L129.098 598.601L135.398 597.701L134.798 597.201L134.298 597.001H133.898L133.298 597.101L128.998 596.101L124.698 597.701L120.698 600.101L116.998 601.301H115.598L114.798 601.401L112.198 602.801L111.298 603.201L110.398 603.301L109.398 603.401L109.198 603.201L108.298 602.901H107.398L106.898 602.501L106.598 602.301L106.298 601.301L106.198 600.401L106.798 598.701V597.701L105.498 598.401L104.598 599.201L102.898 601.001L102.298 601.301H101.498L100.898 601.501L100.598 602.101L100.698 602.601L101.098 603.801V604.501L100.798 605.301L99.7984 606.901L99.4984 607.801L99.1984 608.401L98.6984 608.801L98.3984 609.301L98.7984 609.901L99.1984 610.301L99.3984 610.701L99.4984 611.201L99.8984 611.601L99.4984 613.301L95.0984 613.701L86.5984 613.301L76.5984 614.501L64.8984 613.901L47.8984 615.501L47.9984 610.801L48.4984 607.401Z" stroke="#BB5B01" stroke-width="2" stroke-linecap="round" stroke-linejoin="round"/>
<path d="M884.801 264.801L880.401 265.101L869.401 267.601L866.901 267.201L864.501 266.301L863.601 265.601L862.601 265.401L860.001 265.801L859.301 270.201L859.401 275.401L858.401 280.801L854.201 291.201L851.501 301.401L847.701 303.601L842.501 302.401L838.101 299.501L833.901 295.801L828.701 293.601L822.201 292.701L816.001 294.101L811.901 298.901L807.401 303.001L804.601 303.101L802.701 304.501L801.301 307.301L799.201 309.601L793.801 312.101L787.701 312.701L782.201 314.001L777.801 317.701L770.001 327.901L760.401 334.701L748.101 334.001L742.701 330.601L737.601 322.401L734.901 320.501L731.601 319.201L728.701 317.201L726.301 314.301L724.801 310.901L724.901 307.501L730.501 298.401L729.601 291.701L732.501 290.901L734.901 289.001L736.601 286.701L737.501 284.001L737.001 277.601L738.001 271.401L742.301 266.601L760.201 260.301L764.901 256.801L767.201 251.501L766.801 245.001L767.201 238.401L768.801 235.901L770.901 233.701L774.001 228.101L781.701 218.501L781.301 215.701L780.001 213.001L777.701 210.401L774.701 209.401L772.101 209.801L770.101 209.201L770.501 206.101L775.101 197.001L775.501 193.601L773.701 185.901L777.201 159.801L775.601 148.201L784.001 140.301L787.301 135.601L789.201 130.901L788.501 126.101L784.501 123.101L781.101 119.301L779.801 114.401L781.501 99.5008L781.601 99.4008H783.601L785.401 99.7008L786.801 100.201L788.101 100.501L789.101 100.001L789.501 99.1008L790.101 94.9008L790.501 94.6008L792.201 94.3008L792.801 94.1008L793.401 93.4008L793.801 92.6008L794.301 90.9008L793.001 90.4008L793.601 89.3008L794.501 87.9008L794.801 86.6008L797.501 84.0008L797.901 83.7008L798.201 84.1008L798.701 84.0008L799.201 83.6008L799.701 83.1008L799.901 82.6008L800.001 81.3008L800.801 82.0008L801.401 82.6008L802.201 83.2008L803.401 83.4008L804.001 83.0008L804.501 81.2008L805.401 80.8008L807.101 80.4008L808.401 79.4008L810.301 77.0008L810.801 75.7008H810.901L811.201 75.4008L811.601 75.7008L812.001 76.3008L812.201 76.5008H813.301L813.201 76.2008L812.801 75.6008L812.501 74.7008L812.701 74.4008L813.701 74.0008L814.001 73.8008H814.201L814.901 73.9008L815.101 73.8008V73.6008L815.001 73.0008L815.101 72.8008L817.201 70.4008L818.201 69.6008L817.701 69.0008L817.201 68.5008L816.701 68.2008L816.101 68.0008V67.4008L817.201 67.7008L818.201 68.2008L818.901 68.1008L819.201 66.9008L821.301 67.3008L823.401 66.9008L830.201 63.5008L832.201 62.8008L834.301 62.6008V63.1008L833.901 63.9008L834.701 64.2008L836.101 64.1008L837.401 63.7008V64.0008V64.8008L837.901 64.2008L838.501 62.9008L838.901 62.6008L839.701 62.8008L839.801 63.4008L839.701 64.2008L839.401 64.8008L841.401 63.9008L843.501 63.5008L845.301 62.8008L846.701 61.0008L845.601 60.9008L845.501 60.5008L846.201 59.4008L846.501 59.3008H847.001L847.501 59.2008L847.701 58.6008L847.601 58.2008L847.201 57.6008L847.301 57.3008L847.701 56.5008L848.201 55.8008L851.201 52.9008L852.401 52.1008L852.301 50.8008L853.001 50.2008L855.201 49.9008L855.301 49.8008L874.001 50.7008L891.401 75.0008L908.701 99.4008L913.001 120.101L917.201 140.801L917.301 146.801L917.401 147.101L917.801 148.401V149.901L917.401 152.301V153.201L918.101 154.401L919.101 155.001L920.301 155.201L935.801 155.701L940.701 156.901L942.801 158.001L943.001 158.801L942.601 159.901L942.801 160.701L943.301 161.201L945.501 162.901L946.401 163.301V163.801L946.101 164.001L945.301 164.401L946.801 165.401L948.401 166.301L949.601 167.301L950.101 168.901L950.501 169.201L951.501 168.901L952.501 168.301L953.201 168.101L954.101 168.501L954.401 169.301L954.501 170.101L953.101 171.601L952.901 172.101L952.501 172.601L952.101 173.501L950.801 179.001L950.901 179.801L949.601 180.701L949.701 182.201L951.201 185.601L951.301 186.401V187.001L951.001 189.501L950.201 192.001L948.501 199.901L948.001 201.201L945.201 204.901L944.801 205.501L945.001 206.201L945.601 207.201L945.901 207.301H947.201L947.801 207.601L948.101 208.101L948.401 208.701L948.801 209.201L950.001 210.401L950.901 211.701L951.301 213.301V215.301L951.101 216.901L950.501 218.801L949.701 220.601L948.801 222.101L947.501 222.801L943.601 224.201L942.001 225.201L939.201 227.701L937.601 228.601L933.101 230.001L931.701 230.801L924.901 237.101L924.301 237.301L922.301 237.601L921.401 238.001L919.301 240.201L917.901 241.201L916.301 242.001L914.601 242.401L913.101 242.201L907.801 239.901L904.801 239.101H902.401L899.501 241.401L896.701 244.301L894.201 247.501L892.401 250.801L891.101 253.901L890.201 255.101L887.301 256.701L886.101 257.801L885.201 259.101L884.901 260.701L885.401 263.601L884.801 264.801Z" stroke="#BB5B01" stroke-width="2" stroke-linecap="round" stroke-linejoin="round"/>
<path d="M748.102 334.001L760.402 334.701L770.002 327.901L777.802 317.701L782.202 314.001L787.702 312.701L793.802 312.101L799.202 309.601L801.302 307.301L802.702 304.501L804.602 303.101L807.402 303.001L811.902 298.901L816.002 294.101L822.202 292.701L828.702 293.601L833.902 295.801L838.102 299.501L842.502 302.401L847.702 303.601L851.502 301.401L854.202 291.201L858.402 280.801L859.402 275.401L859.302 270.201L860.002 265.801L862.602 265.401L863.602 265.601L864.502 266.301L866.902 267.201L869.402 267.601L880.402 265.101L884.802 264.801L884.402 265.801L870.902 285.201L868.802 289.601L866.002 299.201L863.402 313.801L861.702 318.601V319.601L862.202 321.101L862.302 322.001L862.202 323.101L861.002 325.701L860.102 326.801L858.502 328.001L857.802 328.501L856.702 329.101L855.302 329.701L849.302 330.401L846.802 331.301L845.502 334.001V335.501L846.402 338.001L846.702 339.501L846.402 341.301L844.602 344.101L844.002 345.701L844.102 347.401L844.902 348.701L847.102 351.001L847.902 352.701L847.802 353.901L847.002 355.201L846.302 357.001L845.302 362.201L845.002 367.201L842.802 372.701L837.902 374.601L831.902 375.501L826.702 377.801L825.702 378.701L823.502 381.501L822.602 382.301L822.002 382.801L817.602 384.901L817.102 385.301L816.502 386.701L816.902 386.901L819.102 387.201L819.802 388.801L820.402 391.101L820.302 394.101L820.002 395.601L819.602 396.901L816.102 403.201L814.502 406.901V409.901L815.002 412.701L813.302 427.201L812.502 430.501L810.802 432.801L809.802 433.201H808.902L807.902 433.001H806.802L806.002 433.401L805.402 434.301L804.802 436.401L803.602 438.901L802.302 440.401L794.502 444.501L793.402 444.801L792.202 444.601L789.802 443.401L788.802 443.201L787.402 443.301L786.502 443.801L785.602 444.401L784.402 445.001L783.402 445.101L782.302 444.901L780.202 444.201L780.802 445.301L782.602 449.701L782.802 450.701L782.902 452.901L782.202 453.601L779.902 455.201L779.302 455.901L778.902 456.901L778.302 457.801L777.402 458.401L775.802 458.601L772.902 458.101L771.202 458.801L769.502 461.301L768.902 464.601L769.102 468.101L770.302 474.301L770.202 475.801L770.002 476.501L769.602 477.501L766.502 481.901L766.102 483.701V486.701L766.502 489.601L767.002 491.501L767.202 492.801L766.802 493.901L763.902 496.901L756.402 507.401L753.702 512.401L753.202 514.001L752.902 515.601L753.102 517.301L754.202 521.701L753.902 523.301L752.902 524.201L751.702 525.001L749.702 528.001L745.002 532.701L744.902 532.601L744.002 528.701L742.102 524.701L741.102 519.601V514.501L737.502 505.701L730.102 498.701L728.202 496.401L725.602 495.201L723.102 496.301L721.702 498.601L720.002 500.701L718.002 502.401L715.502 502.201L713.502 500.001L710.402 494.601L707.102 486.401L707.802 484.001L712.002 479.101L716.902 474.701L736.502 451.101L741.602 446.901L742.302 444.401L741.902 441.601L742.502 436.301L750.102 420.501L749.602 415.201L746.502 411.301L741.702 408.901L739.102 404.501L739.002 401.801L739.402 399.101L738.602 396.701L737.202 394.501L734.602 388.901L730.202 385.001L727.802 384.201L725.202 383.801L723.302 382.001L716.302 368.801L723.302 367.701L729.702 364.801L743.802 356.401L746.602 354.101L747.702 350.901L747.302 340.701L748.102 334.001Z" stroke="#BB5B01" stroke-width="2" stroke-linecap="round" stroke-linejoin="round"/>
<path d="M716.302 368.8L723.302 382L725.202 383.8L727.802 384.2L730.202 385L734.602 388.9L737.202 394.5L738.602 396.7L739.402 399.1L739.002 401.8L739.102 404.5L741.702 408.9L746.502 411.3L749.602 415.2L750.102 420.5L742.502 436.3L741.902 441.6L742.302 444.4L741.602 446.9L736.502 451.1L716.902 474.7L712.002 479.1L707.802 484L707.102 486.4L710.402 494.6L713.502 500L715.502 502.2L718.002 502.4L720.002 500.7L721.702 498.6L723.102 496.3L725.602 495.2L728.202 496.4L730.102 498.7L737.502 505.7L741.102 514.5V519.6L742.102 524.7L744.002 528.7L744.902 532.6L745.002 532.7L740.502 537L735.802 544.1L734.302 545.5L732.902 546.5L732.302 547.2L732.702 547.6L734.502 548L735.602 548.9L739.402 554.4L742.302 557.6L743.302 559.5L742.602 561.2L741.802 561.5L741.202 561.4L740.502 561H739.702L738.602 561.3L737.802 561.8L734.602 564.7L733.402 565.5L733.202 566.2L733.102 566.9L732.602 567.5L732.102 567.7H730.902L730.102 567.9L729.302 567.8L729.002 567.9L728.702 568.3L728.402 569.3L728.102 569.7L723.702 572.5L719.102 576.8L717.702 578.7L717.302 580.7L717.802 581.9L719.402 583.8L719.802 585.1L719.602 587.2L719.102 589.2L716.902 594.4L715.102 596.9L713.102 598L710.102 598.3L708.102 600L706.902 602.5L706.502 605.7L706.002 607.4L704.502 608.8L702.602 609.8L700.702 610.2H699.902L698.202 609.8L697.402 609.7L697.102 609.9L696.302 610.6L695.902 610.8L695.302 610.7L694.502 610.2L694.102 610L691.802 610.3L687.102 610.8L685.102 610.5L683.802 609.3L682.402 605.7L681.102 599.8L680.802 596.8L681.002 593.8L680.702 590.2L679.302 587.1L676.702 585.1L669.602 583.8L667.202 581.3L665.702 578L665.002 574.5L663.802 571.5L661.302 569.8L655.002 567.4L649.702 564.6L647.702 564L646.402 562.9L646.002 559.1L644.602 557.3L643.502 559.5L642.502 562.2L641.902 565.1L641.402 571L641.102 571.2L640.702 571.3L640.202 571.7L639.302 572.9L638.702 574L638.402 575.2L638.302 576.9L618.802 577.2L616.702 576.5L615.102 575.3L614.302 573.8L613.202 568.2L612.602 566.9L611.602 566.7L609.802 567.7L591.202 583.5L589.502 584.3L588.002 583.8L586.502 583.1L584.702 583L583.302 584.6L577.502 602.8V603.1L576.502 603.8H573.802V603.7L575.602 596.4L576.502 583.6L576.202 578.8L578.702 565.5L581.002 561L584.102 557.2L587.902 554.4L591.202 551.3L591.702 542.4L594.702 533.2L591.402 524.3L583.602 517.4L576.802 508.9L568.202 502.9L556.702 501.6L545.002 501.9L542.002 502.5L536.902 504.8L534.502 505.4L533.602 503.7L537.802 497.4L540.402 495.2L551.402 487.8L553.002 486.5L552.702 484.4L552.102 483L552.302 481.7L552.002 477.8L548.002 472.7L548.302 470.3L549.102 468.3L550.402 466.6L552.202 465.8L556.002 467.1L557.702 468L559.902 468.4L562.202 469.1L564.302 469.4L566.402 469.3L569.502 467.3L571.602 464L575.702 464.3L581.402 463.9L586.902 462.3L591.802 458.6L596.202 454.1L601.202 450.5L606.602 447.5L608.702 445.6L612.702 440.8L614.402 438.1L618.102 433.7L635.602 429.4L647.602 423.5L650.202 418.5L650.102 415.6L649.102 410.8L649.702 408.5V406.2L647.502 398.9L646.202 396.8L645.602 394.6L644.802 388.8L645.302 383.9L644.802 379.9L643.202 376.2L647.302 373.5L656.902 373.2L666.202 368.9L671.202 368L676.402 369.3H681.702L689.702 369.9L716.302 368.8Z" stroke="#BB5B01" stroke-width="2" stroke-linecap="round" stroke-linejoin="round"/>
<path d="M537.801 497.401L533.601 503.701L534.501 505.401L536.901 504.801L542.001 502.501L545.001 501.901L556.701 501.601L568.201 502.901L576.801 508.901L583.601 517.401L591.401 524.301L594.701 533.201L591.701 542.401L591.201 551.301L587.901 554.401L584.101 557.201L581.001 561.001L578.701 565.501L576.201 578.801L576.501 583.601L575.601 596.401L573.801 603.701V603.801H572.901L570.701 604.301L569.501 605.201L567.801 608.601L566.601 609.801L565.001 610.601L562.001 611.701L560.501 609.201L558.301 605.301L549.301 594.601L542.601 591.201L530.601 593.501H526.301L524.301 593.101L522.801 591.801L523.501 587.201L521.701 583.301L512.601 578.001L507.101 576.001L501.901 575.601L497.001 577.401L496.101 579.901L496.801 582.801L495.501 584.901L492.901 586.301L489.701 587.101L486.401 587.201L483.301 586.701H480.401L478.101 588.401L476.101 590.601L473.801 591.801L471.301 592.101L469.601 590.101L468.601 587.601L468.001 584.601L467.201 583.401L465.701 583.201L465.401 584.001L464.501 585.301L462.801 585.201L461.101 585.601L458.201 589.401L455.301 590.101H452.301L449.101 590.501L447.901 593.001L447.201 599.401L443.801 604.001L438.601 600.801L436.101 595.501L438.701 588.401L438.801 584.701L437.901 581.001L436.001 578.001L432.901 576.501L430.101 577.201L427.901 578.901L424.801 579.201L422.001 577.801L419.101 575.801L416.601 573.401L414.501 570.801L411.601 564.701L410.801 561.601L413.701 563.001L417.001 565.701L419.401 566.801L421.501 566.201L421.701 562.701L422.901 559.701L432.901 554.201L436.101 549.001L437.401 542.901L437.601 540.401L438.501 538.201L440.001 535.501L438.101 534.201L435.301 534.601L432.801 533.201L431.901 530.301L430.701 521.101L430.901 512.301L430.601 509.501L429.101 506.801L426.901 504.501L424.601 501.201L423.701 497.401L423.501 493.301L423.901 488.901L427.701 489.901L432.601 490.401L436.201 491.701L438.801 492.301L444.201 492.901L446.801 493.601L450.601 495.901L451.901 496.401L458.301 497.501L460.301 498.201L464.401 500.301L466.801 501.001L469.201 501.301L471.401 501.901L473.101 503.801L476.701 505.801L478.501 507.201L479.401 507.701L480.301 508.001L480.901 508.101L481.901 506.801L481.401 504.201L477.801 496.301L476.001 490.801L477.301 485.401L481.501 481.801L491.501 480.701L506.801 485.801L512.301 487.001L520.601 487.301L523.401 487.101V486.601L537.801 497.401Z" stroke="#BB5B01" stroke-width="2" stroke-linecap="round" stroke-linejoin="round"/>
<path d="M562.001 611.7L561.501 611.9L559.301 613.3L557.001 617.7L554.901 619L553.701 619.1L552.701 619L551.801 619.1L550.801 619.6L549.801 620.8L547.601 625.4L545.701 628.1L535.301 636.5L528.301 643.8L526.701 646.2L525.701 647.2L524.501 647.8L524.101 648.3L523.901 650.5L523.701 651.5L522.301 651.7L520.701 651.1L519.001 650.8L517.701 652.1L516.701 653.4L514.001 655.2L513.201 656.4L513.401 658L514.201 659.2L514.901 660.5L514.501 662.4L513.201 664.1L511.901 665.1L511.301 666.1L512.301 668.1L513.801 669.6L515.501 670.9L516.901 672.4L517.701 674.4L517.301 676.2L516.201 677.7L514.801 679.1L513.601 680.6L513.201 682.2L513.301 683.7L513.501 685.2L513.601 686.8L513.101 688.5L511.501 691.7L511.001 693.5L511.101 694.5L511.701 696.4L511.801 697.2L509.701 707.5L509.201 708.5L508.401 708.9L507.501 709L506.701 709.4L505.901 710.2L504.401 712.5L504.001 713.5L502.801 716.8L502.101 718.3L501.001 719.9L498.001 724.6L497.601 726L495.501 727.5L494.801 728.7L495.101 730.3L495.301 731.4L495.601 732.5L494.301 733.7H494.201L494.101 733.3L493.601 733L492.901 732.8L492.301 733.1L491.501 733.8L490.801 734.6L490.501 735.2L490.401 735.8L489.701 737.3L489.501 738.1V738.8L490.001 739.9V740.6L489.301 741.8L488.501 742.2L487.501 742L486.301 741.7H486.001L485.301 741.8L484.701 741.6L485.101 740.9L485.401 740.4L485.701 739.6L485.901 738.8L485.601 738.5L484.901 738.7L483.401 739.4L482.401 739.6L480.201 738.7L480.101 736.6L480.801 733.9L481.201 731.3H480.701L480.201 733.9L478.501 735.2L476.401 735.1L474.401 733.3L474.601 733L474.901 732.3L474.401 732.1L472.801 731.3L473.201 730.2L472.601 729.4L470.501 727.9L468.701 726.8H468.601L468.201 725.5L467.301 723.9L466.801 723.2L465.801 722.9L465.001 722.6L464.101 721.7L463.301 720.9L463.001 720.3H462.501V720.8L466.601 724.7L467.701 726L469.601 729.7L469.901 731.4L468.701 732.3L469.201 733.3L470.001 734.5L470.801 735.5L471.501 735.9L471.901 736.2L471.001 736.1L468.101 733.9L459.201 724.6L456.501 720.8L454.401 717L453.401 712.7L453.901 703.4L452.701 702L449.301 699.9L447.301 699.4L442.901 700.1L441.401 699L440.501 697.5L439.301 694.3L441.401 691.9L445.001 692.6L445.901 689.9L442.301 682.9L440.501 674.9L441.201 670.6L439.901 667.1L440.201 665.2L440.901 663.5L442.101 662L443.101 660.5L442.901 658.8L443.001 657L444.001 655.9L446.701 651.8L447.601 648.4L446.401 646L447.301 644.1L450.301 643.1L453.201 644L454.701 647.4L456.601 647.3L458.001 646L461.501 644.3L462.701 642.8L463.701 641.2H465.701L467.901 642.2L469.101 640.2L470.501 634.5L472.001 632.2L473.701 629.9L478.001 625.6L478.601 620.4L477.201 618.2L477.701 615.6L482.501 613L482.201 610.6L480.601 608.5L479.801 606.5L479.501 604.1L478.201 602.6L477.901 601.8L477.401 601L476.301 600.4L475.301 599.6L472.401 596.3L471.301 592.1L473.801 591.8L476.101 590.6L478.101 588.4L480.401 586.7H483.301L486.401 587.2L489.701 587.1L492.901 586.3L495.501 584.9L496.801 582.8L496.101 579.9L497.001 577.4L501.901 575.6L507.101 576L512.601 578L521.701 583.3L523.501 587.2L522.801 591.8L524.301 593.1L526.301 593.5H530.601L542.601 591.2L549.301 594.6L558.301 605.3L560.501 609.2L562.001 611.7Z" stroke="#BB5B01" stroke-width="2" stroke-linecap="round" stroke-linejoin="round"/>
<path d="M223.701 207.8L222.201 208.8L220.501 208.9L219.701 207.7L218.601 207L217.701 207.3L216.801 207.6L215.601 206.9L214.001 206.5L212.401 206.9L198.001 213.4L195.401 216.7L192.101 218.8L188.701 217.7L186.201 214.9L186.901 207.5L190.201 200.3L192.801 188.2L192.301 158.4L195.001 153.6L200.401 152.2L205.601 153.9L209.001 152.1L209.301 146.3L207.001 133.8L207.301 130.9L208.101 128L208.701 122.4L207.001 117.5L204.501 113.1L204.901 110L205.801 107.1L206.201 106L206.501 104.8V103.3L206.801 101.9L207.901 99.6004L208.101 97.2004L206.801 95.5004L204.901 96.2004L203.401 98.0004L202.301 100.1L199.901 101.5L197.101 101.2L194.301 99.9004L191.801 98.2004L189.201 97.2004L186.401 96.5004L181.301 94.6004L176.601 91.8004L174.301 89.6004L172.001 87.7004L169.201 88.3004L166.601 89.6004L161.701 88.8004L155.901 88.9004L155.301 89.1004L155.501 87.3004L155.701 68.7004L160.601 68.5004L162.801 68.1004L165.001 67.0004L176.901 55.6004L180.401 53.0004L184.501 51.4004L193.601 49.2004L208.601 45.5004L211.101 45.2004L212.801 46.0004L214.501 47.6004L216.201 48.4004L220.601 48.7004L228.301 47.3004L239.201 47.7004L241.801 47.2004L242.601 46.9004L245.001 45.2004L246.001 44.0004L247.301 41.1004L248.101 39.9004L250.201 38.9004L261.401 36.9004L263.901 37.4004L285.301 46.0004L306.801 54.6004L307.501 54.9004L308.001 55.4004L308.501 55.6004L309.201 55.4004L313.601 52.9004L315.101 52.6004L319.201 53.5004L320.601 53.8004L325.601 56.7004L336.301 66.9004L348.601 80.5004L354.801 91.9004L351.001 94.9004L345.101 98.3004H337.701L330.301 96.5004L329.101 95.3004L327.901 93.9004L326.501 93.4004L325.101 93.0004L323.501 92.8004H319.901L318.801 93.8004L318.501 95.7004L318.401 97.8004L317.501 101L315.601 101.5L312.701 100.3L307.201 101L302.401 103.7L301.501 105.9L302.801 119.2L300.601 123.4L297.901 124.7L295.101 125.4L278.001 127.1L274.201 130.1L271.301 134.7L267.401 139.7L263.801 142.2L263.301 147.3L264.801 153L265.101 159.1L261.401 163.1L238.201 164.1L227.101 162.2L224.301 171.5L223.701 207.8Z" stroke="#BB5B01" stroke-width="2" stroke-linecap="round" stroke-linejoin="round"/>
<path d="M299.699 251.8L298.999 240L293.199 230.7L290.299 229.6L288.799 227.2L290.699 221.4L291.099 216.1L287.499 212.6L284.699 211.6L279.099 210.7L277.799 211L276.599 211.7L265.099 212.5L260.599 211.5L253.999 208.6L252.899 206.4L251.099 204.9L246.799 205.5L244.999 205.4L243.399 204.7L241.699 204.8L240.399 206.1L239.799 207.9L238.399 208.7L236.699 208.8L232.699 209.8L231.099 209.5L229.899 208.4L226.799 207.2L223.699 207.8L224.299 171.5L227.099 162.2L238.199 164.1L261.399 163.1L265.099 159.1L264.799 153L263.299 147.3L263.799 142.2L267.399 139.7L271.299 134.7L274.199 130.1L277.999 127.1L295.099 125.4L297.899 124.7L300.599 123.4L302.799 119.2L301.499 105.9L302.399 103.7L307.199 101L312.699 100.3L315.599 101.5L317.499 101L318.399 97.8004L318.499 95.7004L318.799 93.8004L319.899 92.8004H323.499L325.099 93.0004L326.499 93.4004L327.899 93.9004L329.099 95.3004L330.299 96.5004L337.699 98.3004H345.099L350.999 94.9004L354.799 91.9004L356.699 95.3004L361.199 100.5L363.899 103.1L366.399 104.9L368.699 105.8L371.199 106.1H376.799L378.199 105.9L376.899 114L379.299 146L380.999 149.9L380.599 154.6L382.699 158.7L383.799 162.6L384.199 166.6L384.899 168.8L385.399 171.2L384.899 173.2L383.199 177.7L381.999 180.1L383.499 182L386.099 183.2L390.299 186.6L391.099 191.2L388.799 192.1L386.399 191.4L385.099 192.8L384.699 195.3L382.899 197L379.699 199.6L378.499 200.2L377.999 200L377.399 199.3L376.899 199.1H371.299L366.899 201.2L363.999 215L366.599 219.8L366.099 222.4L366.399 225.1L365.699 228.7L364.499 232.1L363.299 234.4L361.699 235.9L356.399 239.3L354.799 241.3L353.999 243.6L352.599 250.5L351.799 252.2L350.799 253.5L349.699 254.5L348.299 255.3L341.999 257.8L341.299 258.1L340.599 258.3L339.399 258.1L338.599 258.2L333.599 259.7H331.899L330.199 259.3L325.199 257.5L323.599 257.3L322.099 257.9L321.199 259L319.799 261.9L318.899 263.1L318.099 263.6L316.299 264.3L315.499 264.8L314.899 265.8L314.799 266.8V267.8L314.499 268.8L313.399 269.8L309.899 271L308.799 265.9L302.999 256.1L299.699 251.8Z" stroke="#BB5B01" stroke-width="2" stroke-linecap="round" stroke-linejoin="round"/>
<path d="M781.6 99.4012L781.5 99.5012L779.8 114.401L781.1 119.301L784.5 123.101L788.5 126.101L789.2 130.901L787.3 135.601L784 140.301L775.6 148.201L777.2 159.801L773.7 185.901L775.5 193.601L775.1 197.001L770.5 206.101L770.1 209.201L772.1 209.801L774.7 209.401L777.7 210.401L780 213.001L781.3 215.701L781.7 218.501L774 228.101L770.9 233.701L768.8 235.901L767.2 238.401L766.8 245.001L767.2 251.501L764.9 256.801L760.2 260.301L742.3 266.601L738 271.401L737 277.601L737.5 284.001L736.6 286.701L734.9 289.001L732.5 290.901L729.6 291.701L726.8 292.001L721.4 291.501L720.8 289.201L720.2 283.601L721.2 265.901L720.7 263.301L719.1 261.301L711.2 253.201L707.5 248.201L703.3 243.701L698.5 240.001L688.1 234.901L677.6 237.601L673.9 237.101L671.9 234.401L674.5 222.501L674.1 216.001L665 193.401L662.7 181.001L662.6 175.601L662.1 172.301L660.7 169.301L659.1 166.801L658.7 164.101L658.6 161.001L657.4 154.801L656.4 151.901L652.1 147.701L646.9 144.101L645.3 139.101L643.9 128.101L641.6 123.101L639.5 121.501L636.9 121.601L634.1 121.001L631.4 119.701L628.9 119.501L623.9 120.901L620.6 120.401L619.9 118.501L617.9 110.701L616 107.701L612.8 106.701L609.4 107.601L602.3 110.501L598.6 111.501L593.3 113.701L592 114.701L591.1 116.801L589.9 118.701L583.3 121.601L576.1 119.201L574 118.701L587 103.201L589.6 100.801L591 99.8012L591.8 99.6012H592.2H592.5L593.1 98.9012L593.5 98.1012L593.8 96.2012L594.1 95.4012L595.4 94.1012L609.8 86.0012L613 84.7012L649.8 76.7012L651.9 76.3012L659.2 75.7012L672.9 77.3012L709.8 77.1012L732.7 83.0012L741.1 86.4012L751.6 92.9012L755.1 95.7012L756.6 96.4012L761.1 97.5012L763.6 97.3012L764.7 97.1012L766.3 96.0012L767.5 95.7012L771.3 97.1012L772.2 97.6012L772.5 98.1012V98.5012L772.7 98.8012L773.3 98.9012L773.5 98.7012L773.9 98.3012L774.3 97.9012L775.1 97.8012L775.8 98.3012L776.4 99.0012L776.9 99.3012L777.7 98.9012L778.9 99.3012L781.6 99.4012Z" stroke="#BB5B01" stroke-width="2" stroke-linecap="round" stroke-linejoin="round"/>
<path d="M378.2 105.9L378.6 105.8L380.3 105L383.8 101.8L388.5 96.2996L390.1 95.9996L398 97.4996H400.8L403.1 96.6996L430.7 79.9996L433.3 78.8996L435.9 78.5996L455.1 81.3996L457.2 82.1996L458 82.7996L459.8 84.4996L461.9 85.7996L464.5 87.8996L465.6 88.3996L467.8 88.9996H467.9L468.9 89.4996L469.9 90.3996L471.8 92.6996L479.3 99.5996L479.9 99.9996L480.7 100.3H480.9L481.3 100.1L482.1 99.5996L483 99.3996L484.9 99.0996H485.8L487.8 99.5996L489.6 100.5L492.9 103L494.4 104.6L496.6 108.2L497.9 109.8L500.7 111.4L520.6 117.4L523.3 117.7L523.2 118.4L522.8 119.6L521.5 120.1L520.6 121L519.9 122.1L519.3 123.6L518.5 124.9L515.1 127.6L511.5 129.5L507.4 130.5L504.4 130.2L503.3 129.2L502.3 128L500 129.4L498.2 129.5L496.3 128.7L494.6 127.6L492.5 124.1L491.2 120.1L489.8 118.7L478.1 119.2L473.1 118.6L467.7 118.7L459.6 120L458.5 122L457.9 127.2L458.1 132.2L462.1 134.7L468.1 134.8L469.7 136.6L470.6 138.9L466.9 139L463.4 140L461.6 143.3L459.1 150.8L456.3 153.4L443 158.4L437.2 162.5L436.3 166L437 173.5L436.6 189.7L438.2 194.7L438.5 197.2L438.4 198.7L438 200.1L438.3 201.3L439 202.3L440.9 207.1L441.1 210.1L437.8 210.9L433.5 213.1L430 214L427.6 216.8L426.4 220.5L425.9 224.3L427 228.2L432.2 232.7L429.6 236.7L423.5 239.2L421.3 238.3L419.8 236.2L417.2 234.3L414.3 233L408.8 231.9L404 234.7L402.8 237.2L402.4 240L400.3 241.1L397.6 240.1H391.8L390.5 244.2L391.8 246.2L391.9 248.4L390 250.4L387.6 251.7L385 251.4L381.1 247.3L378.5 245.7L372.9 244.2L372.8 242.1L374.9 239.8L376.1 238.9L376.3 237.4L375.4 235.6L373.8 234.4L369.8 234.3L367.9 233.8L364.5 232.1L365.7 228.7L366.4 225.1L366.1 222.4L366.6 219.8L364 215L366.9 201.2L371.3 199.1H376.9L377.4 199.3L378 200L378.5 200.2L379.7 199.6L382.9 197L384.7 195.3L385.1 192.8L386.4 191.4L388.8 192.1L391.1 191.2L390.3 186.6L386.1 183.2L383.5 182L382 180.1L383.2 177.7L384.9 173.2L385.4 171.2L384.9 168.8L384.2 166.6L383.8 162.6L382.7 158.7L380.6 154.6L381 149.9L379.3 146L376.9 114L378.2 105.9Z" stroke="#BB5B01" stroke-width="2" stroke-linecap="round" stroke-linejoin="round"/>
<path d="M573.998 118.701L576.098 119.201L583.298 121.601L589.898 118.701L591.098 116.801L591.998 114.701L593.298 113.701L598.598 111.501L602.298 110.501L609.398 107.601L612.798 106.701L615.998 107.701L617.898 110.701L619.898 118.501L620.598 120.401L623.898 120.901L628.898 119.501L631.398 119.701L634.098 121.001L636.898 121.601L639.498 121.501L641.598 123.101L643.898 128.101L645.298 139.101L646.898 144.101L636.898 150.801L632.898 149.801L630.598 148.301L624.898 149.301L622.498 150.201L620.798 151.901L619.698 155.201L618.998 158.601L613.498 174.101L612.998 176.601L613.698 179.801L612.498 182.401L589.398 191.301L586.898 192.901L584.398 194.101L577.998 194.601L573.898 198.301L572.298 204.001L575.498 206.201L580.198 204.901L582.898 204.601L585.498 205.201L586.698 207.801L587.798 213.301L587.898 215.901L585.398 220.701L585.098 223.201L586.598 225.301H589.098L590.398 224.901L593.498 230.401L600.798 240.101L606.298 242.301L618.398 244.601L624.798 244.901L630.298 246.701L629.898 249.201L628.098 251.301L625.498 252.901L617.098 256.201L615.598 261.401L616.398 264.201L614.298 265.501L611.398 264.401L608.798 263.101L596.798 264.001L592.498 262.201L590.698 257.901L591.398 252.901V247.901L589.698 243.301L586.398 240.201L581.998 241.301L572.198 242.001L568.398 240.701L565.398 236.901L560.698 237.601L555.898 237.301L551.098 235.301L546.598 234.101L541.998 234.001L542.198 233.001L542.098 230.901L542.198 229.801L542.898 227.501L544.098 225.401L550.798 219.301L551.498 217.501L549.798 216.501L548.798 216.201L547.098 215.101L544.998 212.901L543.898 211.201L542.198 206.801L541.298 206.201L539.298 205.901L535.998 206.201L534.798 205.101L535.798 200.401L538.598 196.301L539.198 194.501L539.598 192.701L540.498 190.201L540.698 187.601L539.498 183.001L538.698 180.701L535.198 180.301L532.498 182.201H527.798L527.698 180.201L527.198 178.301L526.598 178.001L523.498 178.501L521.698 179.201L520.898 178.901L520.198 178.301L519.098 176.601L519.798 175.401L520.598 174.401L520.898 173.001V165.901L517.698 161.901L512.898 161.401L508.698 159.901L508.098 157.601L508.198 154.901L507.198 152.801L505.298 151.501L503.298 150.401L501.498 149.001L500.798 146.301L500.898 143.301L500.598 141.301L498.798 140.501L493.898 139.201L489.398 138.501L484.898 139.401L481.098 141.401L478.798 144.801L477.498 148.601L476.598 150.101L475.298 149.301L474.998 148.301V147.101L474.398 145.801L470.598 138.901L469.698 136.601L468.098 134.801L462.098 134.701L458.098 132.201L457.898 127.201L458.498 122.001L459.598 120.001L467.698 118.701L473.098 118.601L478.098 119.201L489.798 118.701L491.198 120.101L492.498 124.101L494.598 127.601L496.298 128.701L498.198 129.501L499.998 129.401L502.298 128.001L503.298 129.201L504.398 130.201L507.398 130.501L511.498 129.501L515.098 127.601L518.498 124.901L519.298 123.601L519.898 122.101L520.598 121.001L521.498 120.101L522.798 119.601L523.198 118.401L523.298 117.701L545.398 120.301H548.198L552.198 119.101L553.598 119.001L569.698 120.901L571.298 120.801L571.798 120.601L572.598 120.001L573.498 119.301L573.998 118.701Z" stroke="#BB5B01" stroke-width="2" stroke-linecap="round" stroke-linejoin="round"/>
<path d="M183.5 619.1L183.6 619L188.1 619.4L189.3 618L189.2 615.9L185 614.1H182.7L181.4 612.6L182.6 612.1L185.1 611.8L189 609L190.2 608.6L191 607.6L191.2 606.6L190.5 603V597.6L189.1 595.6L187.2 596.5L186 598.3L182.7 600.3L178.8 600.2L177.6 600L175.2 599.2L174.1 598.5L173 596.5L173.1 594.2L174.9 589.1L178.7 585.1L185.5 580.1L186.9 578.2L188.7 568.2L191.6 566.7L192.8 565L193.3 563.1L195.4 559.5L198.6 557L201.6 556.1L204.4 557.3L208.3 559.8L209.2 560.2L211.2 560.4L212 559.8L212.2 558.2L212 556.4L212.3 554.4L212.2 548.6L212.9 545L214.2 541.4L217.5 539.7L221.2 538.7L221.3 535.6L226.6 533.9L229.4 533.8L237.7 534.4L243.1 534.1L246.9 535.2L248.8 539L250.4 544.2L254.7 545.9L262.6 539.2L266.8 529.4L268.2 522.2L269.2 520L272.4 516.4L274.4 515.3L275.4 514L276.1 512.6L278.1 511.5L280.2 512.4L282 511.7L283.4 509.5L289.5 508.4L291.8 509.5L291.3 512.5L295.1 518.4L299.8 523.5L298.4 525.9L296.7 527.9L295.8 528.3L293.7 528.8L292.7 529.7L292 532.4L294.2 533.9L294.6 535.2L293.8 536.8L294.1 539.2L294.6 540.3L294.8 542L294.1 544.5L293.1 545.6L291.8 546.4L290 548L288.3 549.9L288.2 550.9L288.5 551.7L285 559.7L284.5 561.5L283.5 562.8L281.5 564.9L280.5 567.7L280.3 570.4L281.4 572.7L281.7 573.6L281.4 574.3L281 574.5L280.7 575V576.2L279 576.6L278.3 578.5L277.4 583.4L277 584.4L276 586.2L275.1 586.8L273.9 587.2L271.5 586.7L270.5 585.8L268.3 585.6L264.6 588.6L262.9 588.9L260.9 583.9L261.7 581.7L262.9 579.8L259.5 577.1L238.2 577L237 577.6L236.1 578.6V580.6L234.8 582.2L233.9 584.3L231.2 586.9L228.8 589.8L228 591.4L227.7 593.9L227.4 595V597.3L227.8 598L228.4 598.3L229.7 600.4L231.1 604.4L229.3 608.4L228 610.3L227.5 612.6L226.4 614.4L224.5 615.5L222.8 616L221.8 617.6L221.4 619.9L221 620.8L220.5 621.3L220.3 621.9L220.7 622.6L222.3 623.5L224.1 625.1L225.7 627L225.9 628L226.6 628.3H227.5L228.4 628.7L229.3 629.3L230.7 631.5L230.6 633.9L222.2 654.5L222.1 654.6L213.3 643.1L211.7 641.6L208.7 640.3L207.4 638.8L205.4 635.7L202.8 633L200.5 631.1L194.8 627.5L192.3 625.9L187.6 621.5L184.7 619.7L183.5 619.1Z" stroke="#BB5B01" stroke-width="2" stroke-linecap="round" stroke-linejoin="round"/>
<path d="M222.102 654.601L222.202 654.501L230.602 633.901L235.902 636.501L239.502 640.601L238.802 645.601L239.402 649.601L240.902 650.701L242.302 650.201L246.602 646.401L246.202 643.901L247.002 642.101L251.902 642.301L254.202 641.901L257.002 642.101L259.902 644.201L261.302 644.801L262.102 644.901L262.802 644.301L263.302 643.301L267.502 640.701L272.202 640.501L281.002 645.301L285.102 649.801L287.702 651.201L289.802 652.801L289.502 655.601L287.802 658.301L288.202 659.201L289.002 659.901L289.402 660.801L289.102 661.701L289.202 662.901L290.502 663.301H291.902L299.302 661.701L303.202 658.901L306.302 655.201L310.502 652.001L313.602 648.401L314.502 645.501V642.501L313.502 641.601L312.102 641.301L307.602 637.101L305.202 633.301L304.302 630.301L304.102 627.701L301.702 623.501L301.902 620.701L303.002 618.601L304.802 616.901L307.302 617.201L309.302 619.201L310.802 621.601L312.902 621.701L316.102 617.701L318.102 616.501L325.202 613.501L334.402 607.901L339.002 606.001L341.802 605.901L344.402 606.401L346.602 605.701L348.902 602.801V605.201L349.302 607.401L351.402 614.901L351.802 619.101L353.202 622.801L353.502 625.801L353.802 626.801L354.802 628.701L355.202 629.801L355.302 630.801L355.102 634.201L354.802 635.201L354.302 635.801L353.502 636.201L352.502 636.601L351.002 637.801L350.702 639.501L351.002 643.501L349.902 647.401V648.101L350.002 649.401L349.902 650.101L349.602 650.701L346.602 654.801L345.102 657.401L344.302 659.301L343.802 661.401L343.602 664.601L341.602 673.401L340.102 676.901L339.802 678.501L339.502 680.601L339.102 681.601L338.502 682.401L337.102 684.001L336.602 684.301L335.302 684.801L334.802 685.201L334.102 686.001L333.602 686.301L333.702 686.501L335.002 689.801L335.202 691.401L334.002 692.101L324.202 693.601L322.902 694.001L321.502 695.101L320.802 695.701L320.302 696.401L319.902 697.201L319.702 698.101V699.201L319.502 699.601L318.202 700.001H315.002L313.502 700.501L312.902 702.301L313.102 703.101L313.802 704.301L314.002 704.901L313.602 705.701L312.702 706.201L310.902 706.701L310.302 707.201L309.902 707.701L309.302 708.101L308.302 708.301L307.402 708.201L306.402 707.901L305.602 707.801L304.902 708.101L302.702 711.101L301.502 711.701L299.402 711.501L297.902 710.801L296.302 709.801L293.702 707.501L292.702 708.001L290.202 711.601L288.102 712.701L285.802 713.101L284.402 712.801L283.002 713.301L281.602 713.901L280.202 714.401L277.602 716.201L274.802 717.601H273.702L272.402 717.801L270.502 717.501L269.102 716.401L265.202 714.301L261.702 713.101L258.802 711.201L256.802 709.501L256.302 708.301L257.902 708.501L259.502 708.901L258.902 707.901L256.802 705.701L256.102 705.201L255.802 705.501V706.901L255.602 707.201L254.902 707.301L254.302 707.401L253.202 707.801L252.202 707.301L250.402 707.601L249.602 707.201L249.502 706.601L249.602 703.901L249.302 700.401L247.702 693.501L248.102 692.501L249.902 692.101L254.902 692.001L256.302 691.601L256.502 692.301L256.702 692.801L257.402 693.701L258.002 693.301L258.502 692.101L259.002 691.601L259.402 691.301L262.002 690.301L263.302 690.001L264.402 690.101L265.202 690.601H265.702L265.102 689.701L263.302 688.101L262.602 686.901L262.302 685.901L262.202 684.601L262.402 683.401L262.802 682.501L263.802 681.901L265.002 681.601L267.502 681.701L268.402 681.301L269.302 680.301L270.402 678.601L269.202 679.101L268.202 680.001L267.102 680.601L265.702 680.101L265.502 680.501L265.002 680.801L264.602 681.201L262.902 680.801L261.102 681.701L260.002 683.401L260.502 685.401L259.602 687.201L258.602 688.401L257.402 688.701L255.802 688.001L255.402 687.501L255.202 687.001L254.902 686.601L254.002 686.501L253.602 686.901L253.802 687.901L254.302 688.901L254.802 689.601L250.402 689.301L241.802 686.501L241.502 686.101L241.102 685.201L240.902 684.801L238.502 682.601L236.902 681.501L236.302 679.901L236.202 678.301L236.402 677.501L236.902 677.301L238.102 675.901L238.802 675.501L239.302 675.401L246.802 675.701L249.602 676.101L251.102 677.001H251.702L252.402 675.901L253.702 673.201L254.302 672.301L255.202 671.901H256.402L257.602 672.301L258.402 672.901L258.602 673.401L259.002 675.101L259.202 675.501L260.002 675.401L260.402 675.201L260.502 674.701V673.901L259.902 672.701L258.702 671.401L257.102 670.301L255.802 669.701L254.402 669.801L253.602 670.501L252.702 672.901L251.902 673.601L250.702 674.201L249.302 674.501L248.002 674.401L246.602 673.601L246.002 672.501V671.201L247.402 667.101L247.602 666.001L247.502 664.501H247.002L244.902 670.201L244.102 671.701L243.102 672.701L241.802 673.201L240.002 673.401L239.202 673.601L237.402 674.601L235.502 675.301L235.102 675.101L234.002 674.401L232.902 673.401L231.702 671.901L230.702 670.301L230.002 668.201L229.302 667.101L228.602 665.701L228.302 664.001L228.502 662.401L229.002 660.701L229.702 659.301L230.602 658.701L231.502 659.001L233.002 660.201L233.602 660.401L234.002 659.901L233.802 659.201L233.502 658.401L233.602 657.701L236.002 655.601L242.202 653.301L243.902 650.401L242.302 650.701L239.702 653.001L236.702 653.901L231.002 657.001L229.902 657.801L226.102 661.301H225.302L222.502 655.001L222.102 654.601Z" stroke="#BB5B01" stroke-width="2" stroke-linecap="round" stroke-linejoin="round"/>
<path d="M256.802 709.501L258.802 711.201L261.702 713.101L265.202 714.301L269.102 716.401L270.502 717.501L272.402 717.801L273.702 717.601H274.802L277.602 716.201L280.202 714.401L281.602 713.901L283.002 713.301L284.402 712.801L285.802 713.101L288.102 712.701L290.202 711.601L292.702 708.001L293.702 707.501L296.302 709.801L297.902 710.801L299.402 711.501L301.502 711.701L302.702 711.101L304.902 708.101L305.602 707.801L306.402 707.901L307.402 708.201L308.302 708.301L309.302 708.101L309.902 707.701L310.302 707.201L310.902 706.701L312.702 706.201L313.602 705.701L314.002 704.901L313.802 704.301L313.102 703.101L312.902 702.301L313.502 700.501L315.002 700.001H318.202L319.502 699.601L319.702 699.201V698.101L319.902 697.201L320.302 696.401L320.802 695.701L321.502 695.101L322.902 694.001L324.202 693.601L334.002 692.101L335.202 691.401L335.002 689.801L342.002 690.401L344.202 693.001L344.502 693.401L344.702 693.701L344.602 694.301L344.402 694.701L343.702 695.301L343.602 695.601L343.202 695.801L341.802 696.101L341.502 696.601L341.302 697.401L340.802 698.201L338.302 701.401L336.402 702.701L334.802 704.301L333.702 706.701L333.302 710.201L332.702 711.801L331.402 712.501L330.902 713.201L330.402 714.801L330.102 716.701V718.201L330.302 719.101L330.602 719.901L331.002 720.701L331.602 721.401L330.302 722.801L329.502 724.501L329.302 725.601L327.802 727.901L326.902 730.501V733.601L328.602 735.901L329.702 736.401L330.802 736.501L331.402 737.401L331.102 738.801L331.902 741.101L334.202 740.901L340.502 738.601L345.202 741.501L345.802 744.301L347.002 746.801L349.102 748.401L351.602 749.501L352.402 750.701L352.002 751.301L350.802 754.501L350.302 757.901L350.802 760.401L350.502 761.101V762.601L350.302 763.501L349.602 761.801L349.402 760.801L349.202 756.101L348.802 755.201L348.502 755.701L348.102 756.201L347.702 756.501L347.202 756.801L347.602 757.901L347.702 761.401L348.002 762.701L348.902 764.301L349.502 765.801L350.302 768.401V769.301L349.802 770.101L349.002 770.401L346.702 770.301L344.502 770.601L344.102 770.101L343.302 767.601L343.002 765.301L343.102 761.801L342.802 759.101L341.702 757.101L339.402 757.301L341.502 759.001L342.202 761.701L342.002 764.801L341.002 767.701L340.802 770.201L337.102 771.101L332.702 770.701L330.602 769.301L329.602 769.501L328.602 769.801L329.102 771.201L327.902 771.701L326.002 771.801L324.602 772.201L323.102 772.801L319.702 772.901L318.202 773.401L316.402 771.301L317.902 768.101L322.902 762.501L321.902 762.401L321.302 762.301H320.802L320.202 762.501L317.602 765.601L317.302 761.501L316.002 757.801H315.602L315.502 759.301L315.602 761.301L316.002 763.201L316.602 764.501L315.802 763.801L315.202 763.001L314.302 762.301L312.902 762.001L313.802 763.801L314.602 764.901L315.102 766.201L315.002 768.201L314.502 769.701L314.002 770.801L313.502 771.201L312.902 771.401L312.402 771.801V772.901L313.002 772.601H313.502L314.502 772.901L314.102 773.601L312.002 774.301L309.202 774.501L307.302 774.001L307.002 774.301L306.502 774.701L306.202 775.001L305.002 774.501L304.302 773.801L304.102 772.701V771.301L304.402 770.101L305.402 768.301L305.602 767.201L305.302 767.401L304.502 767.601L304.102 767.701V766.501L304.402 764.401H303.602L302.802 764.201L301.902 763.801L301.002 764.101L300.702 764.801L300.902 766.001L301.202 767.001L301.502 767.701L301.202 768.701L301.602 769.501L302.202 770.401L302.602 771.601L302.302 773.201H301.802L300.902 772.401L299.702 771.901L298.002 771.801L297.402 771.401L297.302 768.701L297.802 768.601L297.902 768.401L296.902 766.901L296.802 766.701L296.702 765.401L296.802 764.101H296.402L295.802 766.701L295.402 766.301L294.202 765.601L295.402 768.201L295.602 769.501L294.702 770.301L293.602 770.201L292.402 769.501L291.502 768.601L290.902 768.201L289.302 767.701L287.602 766.301L286.702 764.401L287.502 762.501L286.702 762.401L286.102 762.701L285.902 763.201L286.002 764.101H285.502L284.202 762.801L281.202 761.001L280.302 759.901L280.802 760.201L281.802 760.601L282.302 761.001L281.702 760.001L280.802 759.501L279.802 759.301L278.702 758.901L277.102 757.101L276.502 756.301L274.502 754.201L274.002 753.901L267.002 747.301L264.902 744.401L264.102 741.101L264.402 741.201L264.702 741.301L265.202 741.701V740.201L261.902 738.201L261.002 736.701L260.702 735.501L258.802 732.201L257.902 731.301L260.502 732.801L259.902 731.001L257.402 728.301L255.302 722.401L254.702 718.801L254.302 717.701L253.302 715.701L252.902 714.501L252.702 713.301L252.502 712.701L251.902 712.101L251.402 711.301L251.102 710.101L251.502 709.201L252.402 708.801L253.602 708.901L254.802 709.301L255.602 710.001L257.002 711.901L257.902 712.501L256.802 709.501Z" stroke="#BB5B01" stroke-width="2" stroke-linecap="round" stroke-linejoin="round"/>
<path d="M334.998 689.8L333.698 686.5L333.598 686.3L334.098 686L334.798 685.2L335.298 684.8L336.598 684.3L337.098 684L338.498 682.4L339.098 681.6L339.498 680.6L339.798 678.5L340.098 676.9L341.598 673.4L343.598 664.6L345.798 666.7L348.298 666.8L347.498 669.5L345.098 681.5L345.598 683.2L348.298 683.4L351.098 682.7L354.198 686L353.598 691.4L352.498 693.8L352.598 696.5L353.298 697.3L355.098 698.6L355.598 699.6L363.598 704.8L374.298 705.6L383.798 704.6L387.798 705.8L390.198 705.5L392.498 704.9L393.998 707.7L393.598 711.4L385.798 723.4L386.798 729.3L389.898 730.2L396.098 729L399.098 728.9L401.998 730.1L405.998 730.2L410.998 733.6L411.998 735.5L413.298 737.6L413.998 740.5L413.898 742.3L413.398 742.6L412.898 743.3L412.598 744L412.798 745.1L412.998 746V746.7L412.398 747.6V748.1L413.398 749.4L413.698 750L413.398 750.2L412.198 751.6L411.498 752.2L410.598 752.7H409.698L408.998 752.1H408.498L407.798 753.6L406.198 753.5L403.598 752.1L401.698 752L399.698 751.6L397.998 750.8L397.098 749.5L396.598 749.8L396.098 749.9L394.698 750L394.498 750.2L394.398 750.8L394.098 751.3L393.398 751.6V752.1L393.898 752.4L394.398 752.6L393.998 753.1L394.998 753.5L396.198 754.5L398.298 754.9L398.698 755.5L398.598 756.1L398.098 756.8L394.698 757.3L394.398 756.9L392.698 754.4L387.898 749.2L387.198 747.6V745.6L386.998 744.9H386.498L385.398 745.4H383.798L383.498 745.3L382.898 744.6L381.498 743.5L380.898 742.7L379.698 739.2L378.898 738.1L378.798 738.8L378.398 739.5L377.998 740.1H377.798L377.998 740.9L378.398 741L378.898 741.1L379.398 741.7L380.098 744.3L380.898 745.4L382.198 745.9L384.598 747L386.298 749.6L386.598 752.1L384.598 753.1L385.598 753.8L386.698 754.9L387.398 756.2L386.898 757.6L384.798 759.9L383.598 760.5L381.998 759.9L381.898 761L381.998 761.4L380.598 760.8L379.498 759.9L379.098 758.8L379.398 757.3L378.398 758.2L378.198 759.5L378.598 760.8L379.398 762L377.298 762.5H376.798L375.898 760.7L375.398 758.8L375.198 755L373.998 752.9L373.598 751.6L374.498 751L374.798 750.4L375.198 749L375.398 747.4L375.198 746.4L375.598 746.6L376.298 746.7L376.798 746.8L376.298 746L374.698 744.3L374.398 743.5L373.998 741.8L373.698 741.1L372.298 743.1H371.798L371.498 741.8L370.598 740.1L370.198 741.3L370.398 743.1L370.098 743.7L370.898 745L372.598 749.5H371.798L371.298 749.4L370.898 749.1L370.598 748.4L370.298 748.7L369.598 749L368.898 747.5L368.098 746.2L365.898 743.7L366.098 745L366.398 746L367.498 747.9L368.098 748.7L368.398 749.1L368.498 749.7L368.198 750.4L367.698 750.8L367.498 751.2L367.998 752.1L368.798 750.9L370.198 750.5L371.498 750.9L372.198 751.8L371.398 757.1L371.598 758.9L374.298 764.2L375.198 765.4L375.098 766.2L374.698 766.9L373.898 767.2L372.898 767.1L372.098 766.7L370.698 766.1L370.798 766.4L370.898 766.8L371.098 767.2L369.498 766.7L367.798 765.9L366.098 765.6L364.298 766.2L363.498 765.3L362.898 764.1L362.798 762.7L363.298 761.4L361.998 760.8L360.798 758.8L359.998 756.4L359.698 754.4L359.798 753.1L360.198 752.3L360.698 751.8L361.298 751L361.598 750.3L361.898 749.1L361.698 747.9L360.498 747.4L358.498 746.3L357.198 743.8L355.998 739.1L355.798 737.2L356.098 736.2L356.798 735.2L357.398 734.2L357.198 733.6L356.498 733.5L355.498 734.4L354.798 733.5L354.598 733L354.498 732.3L353.798 732.6L353.198 732.7L352.498 732.6L351.898 732.3L352.198 733.6L352.398 734.9L352.698 736L353.698 736.5L354.398 737L354.898 738.4L355.498 741.1L355.798 744L356.198 745.3L356.798 745.9L357.798 746.4L358.798 747.6L360.198 750L358.498 751.5L358.098 752.1L357.998 753.2L359.498 760.6L360.298 762.9L361.298 764.1L361.098 765.8L362.698 767.2L363.598 768.3L361.798 769.3L359.398 769.7L356.398 769.9L353.598 769.7L351.898 768.7L351.698 767.6L351.898 763.2L352.298 762.6L352.398 762.2L352.198 761.8L351.498 761.3L351.398 761V758.3L351.598 757.1L353.298 752.5L353.498 751.7L353.398 749.5L352.398 750.7L351.598 749.5L349.098 748.4L346.998 746.8L345.798 744.3L345.198 741.5L340.498 738.6L334.198 740.9L331.898 741.1L331.098 738.8L331.398 737.4L330.798 736.5L329.698 736.4L328.598 735.9L326.898 733.6V730.5L327.798 727.9L329.298 725.6L329.498 724.5L330.298 722.8L331.598 721.4L330.998 720.7L330.598 719.9L330.298 719.1L330.098 718.2V716.7L330.398 714.8L330.898 713.2L331.398 712.5L332.698 711.8L333.298 710.2L333.698 706.7L334.798 704.3L336.398 702.7L338.298 701.4L340.798 698.2L341.298 697.4L341.498 696.6L341.798 696.1L343.198 695.8L343.598 695.6L343.698 695.3L344.398 694.7L344.598 694.3L344.698 693.7L344.498 693.4L344.198 693L341.998 690.4L334.998 689.8ZM414.398 758.9L416.898 758.6L417.698 758.9L417.298 759.9L416.598 760.8L415.298 761.1L412.398 761L411.198 761.1L407.498 762.5L406.198 762.6L400.598 762.3L399.398 761.7L398.998 760.7L399.698 759.3L400.398 759L404.098 757.8L404.998 758.2L407.698 759.5L408.998 759.9L410.398 759.7L413.098 759L414.398 758.9ZM394.198 758.3L397.698 758L398.598 758.3L397.698 759.1L397.198 760L397.098 761.1V762.2L396.798 763.4L395.998 764.2L394.998 764.8L393.898 765.3L387.198 766.7L384.598 766.4L383.898 765.5L384.598 764.1L386.998 761.5L388.798 758.9L390.198 757.2L390.498 756.5L390.798 755.2L391.898 755.8L392.998 757.9L394.198 758.3Z" stroke="#BB5B01" stroke-width="2" stroke-linecap="round" stroke-linejoin="round"/>
<path d="M441.4 691.9L439.3 694.3L440.5 697.5L441.4 699L442.9 700.1L447.3 699.4L449.3 699.9L452.7 702L453.9 703.4L453.4 712.7L454.4 717L456.5 720.8L459.2 724.6L468.1 733.9L471 736.1L471.9 736.2L472.3 736.6L473.4 739.9L474.4 741.1L474.1 741.6L473.5 743.3L473.4 744L473.7 745.1L474.4 745.5L475.3 745.8L476 746.4L476.2 748.1L475 749.2L473.6 750.1L472.8 751.3L471.8 753.6L471.1 754L470.3 754.1H467L462.7 753.6H456.2L453.1 753.2H451.6L449.1 754.5L447.6 754.7H444.3L431.4 756.2L430.6 755.8L429.7 755.7L428.8 756L428.2 756.8H429H429.7L430.3 757L430.8 757.3L429.2 757.7L426.7 757.9L424.5 757.5L423.5 756.5L422.5 756.2L415.7 755.8L416 755.4L416.1 755.2L416.3 755L416.8 754.7L415.8 754.4L414.9 754.6L414.3 754.5L414.1 753.6L414.4 753.2L414.9 752.9L415.4 752.4L415.7 751.6L415.5 751.2L414.1 749.5L414.4 749.2L414.7 748.4L413.6 747.1L413.8 745.2L415.2 741.7H414.7L413.9 742.3L414 740.5L413.3 737.6L412 735.5L411 733.6L410.5 730.4L408.8 727.4L409.1 726.1L409.5 724.8L408.5 721.1L410.2 718.3L412.7 715.8L413.1 712.4L412.7 708.9L413 705.6L414 700.9L413.9 699.4L413.1 698L413.2 696.5L416.6 695.5L420.5 696.1L422.7 694.6L423.2 693.2L422.4 691.8L420.5 691.2L420.6 690.2L422.4 686L422 680.8L424 679.4L426.9 679.8L430.6 682.5L433.2 686.4L437.5 688.8L441.4 691.9Z" stroke="#BB5B01" stroke-width="2" stroke-linecap="round" stroke-linejoin="round"/>
<path d="M439.901 667.1L441.201 670.6L440.501 674.9L442.301 682.9L445.901 689.9L445.001 692.6L441.401 691.9L437.501 688.8L433.201 686.4L430.601 682.5L426.901 679.8L424.001 679.4L422.001 680.8L422.401 686L420.601 690.2L420.501 691.2L422.401 691.8L423.201 693.2L422.701 694.6L420.501 696.1L416.601 695.5L413.201 696.5L413.101 698L413.901 699.4L414.001 700.9L413.001 705.6L412.701 708.9L413.101 712.4L412.701 715.8L410.201 718.3L408.501 721.1L409.501 724.8L409.101 726.1L408.801 727.4L410.501 730.4L411.001 733.6L406.001 730.2L402.001 730.1L399.101 728.9L396.101 729L389.901 730.2L386.801 729.3L385.801 723.4L393.601 711.4L394.001 707.7L392.501 704.9L398.001 688.8L400.901 685.6L401.801 683.7L402.501 681.7L403.501 680.1L404.101 678.3V676.3L403.801 674.2V672.1L403.201 670.1L402.401 668.7L403.101 667.6L403.801 664.1L402.801 655.6L399.901 653L397.801 652.5L394.001 650.6L392.401 649.2L395.901 644.7L401.001 642L401.501 642.3L401.701 642.6L405.301 642L408.901 641.9L413.901 645.6L414.001 650.1L413.301 655L417.801 657.2L428.801 657.4L432.901 659.3L433.401 661.9L434.701 664.2L437.101 666.1L439.901 667.1Z" stroke="#BB5B01" stroke-width="2" stroke-linecap="round" stroke-linejoin="round"/>
<path d="M436.101 595.501L438.601 600.801L443.801 604.001L447.201 599.401L447.901 593.001L449.101 590.501L452.301 590.101H455.301L458.201 589.401L461.101 585.601L462.801 585.201L464.501 585.301L465.401 584.001L465.701 583.201L467.201 583.401L468.001 584.601L468.601 587.601L469.601 590.101L471.301 592.101L472.401 596.301L475.301 599.601L476.301 600.401L477.401 601.001L477.901 601.801L478.201 602.601L479.501 604.101L479.801 606.501L480.601 608.501L482.201 610.601L482.501 613.001L477.701 615.601L477.201 618.201L478.601 620.401L478.001 625.601L473.701 629.901L472.001 632.201L470.501 634.501L469.101 640.201L467.901 642.201L465.701 641.201H463.701L462.701 642.801L461.501 644.301L458.001 646.001L456.601 647.301L454.701 647.401L453.201 644.001L450.301 643.101L447.301 644.101L446.401 646.001L447.601 648.401L446.701 651.801L444.001 655.901L443.001 657.001L442.901 658.801L443.101 660.501L442.101 662.001L440.901 663.501L440.201 665.201L439.901 667.101L437.101 666.101L434.701 664.201L433.401 661.901L432.901 659.301L428.801 657.401L417.801 657.201L413.301 655.001L414.001 650.101L413.901 645.601L417.601 644.401L419.601 645.401L421.201 646.501L423.901 649.001L426.001 648.001L425.101 644.001L425.601 640.201L427.401 638.101L428.901 635.901L428.801 633.601L428.201 631.201L428.101 628.901L427.201 625.701L427.101 624.601L425.801 622.601L429.101 612.501V607.101L426.101 597.301L428.601 595.801L431.101 596.001L436.101 595.501Z" stroke="#BB5B01" stroke-width="2" stroke-linecap="round" stroke-linejoin="round"/>
<path d="M343.602 664.6L343.802 661.4L344.302 659.3L345.102 657.4L346.602 654.8L349.602 650.7L349.902 650.1L350.002 649.4L349.902 648.1V647.4L351.002 643.5L350.702 639.5L351.002 637.8L352.502 636.6L353.502 636.2L354.302 635.8L354.802 635.2L355.102 634.2L355.302 630.8L355.202 629.8L354.802 628.7L353.802 626.8L353.502 625.8L353.202 622.8L351.802 619.1L351.402 614.9L349.302 607.4L348.902 605.2V602.8L349.602 602.6L351.302 602.7L353.302 603.1L355.202 602.8L357.702 600.4L359.402 592.9L361.202 589.3L366.302 584.4L367.002 586.5L366.902 589L367.902 589.4L371.902 589.3L376.302 591.1L378.702 591.7L381.002 592.7L380.702 597.8L376.502 602.4L374.402 608.1L375.102 610L376.202 610.5L378.802 611L379.902 611.6L381.502 613.8L383.902 619.3L384.302 620L384.502 620.8L384.002 621.4L383.502 621.6V623.1L383.402 624.4L383.102 625.4L383.702 626.3L384.902 626.1L386.002 625.2L387.202 626L387.502 627.8L389.302 629.2L388.902 631.8L389.802 634L391.102 636.1L391.902 638.5L393.502 640.4L395.702 640.7L397.702 640.1L398.502 640.2L399.802 641L400.202 641.8L401.002 642L395.902 644.7L392.402 649.2L389.202 649.8L386.102 650.9L379.302 649.4L375.802 649.8L372.402 650.6L369.502 652.4L368.502 655.6L365.502 661.7L362.502 662.5L359.302 661.2L353.402 662.8L348.302 666.8L345.802 666.7L343.602 664.6Z" stroke="#BB5B01" stroke-width="2" stroke-linecap="round" stroke-linejoin="round"/>
<path d="M230.601 633.9L230.701 631.5L229.301 629.3L228.401 628.7L227.501 628.3H226.601L225.901 628L225.701 627L224.101 625.1L222.301 623.5L220.701 622.6L220.301 621.9L220.501 621.3L221.001 620.8L221.401 619.9L221.801 617.6L222.801 616L224.501 615.5L226.401 614.4L227.501 612.6L228.001 610.3L229.301 608.4L231.101 604.4L229.701 600.4L228.401 598.3L227.801 598L227.401 597.3V595L227.701 593.9L228.001 591.4L228.801 589.8L231.201 586.9L233.901 584.3L234.801 582.2L236.101 580.6V578.6L237.001 577.6L238.201 577L259.501 577.1L262.901 579.8L261.701 581.7L260.901 583.9L262.901 588.9L264.601 588.6L268.301 585.6L270.501 585.8L271.501 586.7L273.901 587.2L275.101 586.8L276.001 586.2L277.001 584.4L277.401 583.4L278.301 578.5L279.001 576.6L280.701 576.2V575L281.001 574.5L281.401 574.3L281.701 573.6L281.401 572.7L280.301 570.4L280.501 567.7L281.501 564.9L283.501 562.8L284.501 561.5L285.001 559.7L288.501 551.7L288.201 550.9L288.301 549.9L290.001 548L291.801 546.4L293.101 545.6L294.101 544.5L294.801 542L294.601 540.3L294.101 539.2L293.801 536.8L294.601 535.2L294.201 533.9L292.001 532.4L292.701 529.7L293.701 528.8L295.801 528.3L296.701 527.9L298.401 525.9L299.801 523.5L301.101 524.2L302.601 523.9L303.901 524.7L303.601 526.2L306.101 527L306.701 528.8L305.801 532.1L307.701 534.7L311.201 534.6L314.701 533.2L316.201 532.2L317.701 531.9L318.501 533.2L319.601 534.2L322.101 535.9L324.301 538.4L326.001 538.5L328.901 537.8L330.501 538L332.401 539.7L334.101 543.9L335.101 545.3L335.401 546.7L336.401 548.2L340.201 547.5L343.301 546.2L345.301 546L346.401 546.9L347.301 548L347.501 549.3L348.501 549.9L350.501 550.5L350.701 551.1L351.901 553.8L352.101 554.5L352.201 555.9L351.901 557.3L350.901 560.1L350.601 564.1L349.901 565.9V566.7V570L349.701 570.7L347.801 575L346.901 577.9V579.2L347.301 583.2L347.001 593L347.301 596.2L348.801 600.6L348.901 601.7V602.8L346.601 605.7L344.401 606.4L341.801 605.9L339.001 606L334.401 607.9L325.201 613.5L318.101 616.5L316.101 617.7L312.901 621.7L310.801 621.6L309.301 619.2L307.301 617.2L304.801 616.9L303.001 618.6L301.901 620.7L301.701 623.5L304.101 627.7L304.301 630.3L305.201 633.3L307.601 637.1L312.101 641.3L313.501 641.6L314.501 642.5V645.5L313.601 648.4L310.501 652L306.301 655.2L303.201 658.9L299.301 661.7L291.901 663.3H290.501L289.201 662.9L289.101 661.7L289.401 660.8L289.001 659.9L288.201 659.2L287.801 658.3L289.501 655.6L289.801 652.8L287.701 651.2L285.101 649.8L281.001 645.3L272.201 640.5L267.501 640.7L263.301 643.3L262.801 644.3L262.101 644.9L261.301 644.8L259.901 644.2L257.001 642.1L254.201 641.9L251.901 642.3L247.001 642.1L246.201 643.9L246.601 646.4L242.301 650.2L240.901 650.7L239.401 649.6L238.801 645.6L239.501 640.6L235.901 636.5L230.601 633.9Z" stroke="#BB5B01" stroke-width="2" stroke-linecap="round" stroke-linejoin="round"/>
<path d="M681.7 369.3H676.4L671.2 368L666.2 368.9L656.9 373.2L647.3 373.5L643.2 376.2L640.8 375.2L628.2 367.3L591.1 350L588.7 350.5L587.6 351.2L586.6 353L589.5 357.2L590.5 359.9L589.8 362.4L584.9 364.3L582.9 366L580.7 370.7L578 371.9L575 372.5L563 373.1L552.3 371.1L547.6 369.6L545 365L541.6 361L538.9 360.1L537.1 358.3L537.4 355.9L538.4 353.7L539.8 351.6L540.3 349.3L540 343L538.4 337.8L533.5 336L524.8 337.6L522 335.7L522.1 323.4L521.7 319.6L520.2 315.4L517.5 312L513 310.9L508.7 311.6L507.1 309.7L505.3 308.1L503 306.8L502 304.8L504.5 300.2L505.4 295.2L508.8 291.4L511 286.3L510.4 281L507 276.9L504.8 271L504.6 264.5L505.1 258.7L507.4 253.9L511.9 253.6L514.6 252.3L516.6 250.1L519.6 245.7L527.4 237.5L532.4 235.2L533.6 236L534.9 236.6L536.3 236.3L542 234L546.6 234.1L551.1 235.3L555.9 237.3L560.7 237.6L565.4 236.9L568.4 240.7L572.2 242L582 241.3L586.4 240.2L589.7 243.3L591.4 247.9V252.9L590.7 257.9L592.5 262.2L596.8 264L608.8 263.1L611.4 264.4L614.3 265.5L616.4 264.2L615.6 261.4L617.1 256.2L625.5 252.9L628.1 251.3L629.9 249.2L630.3 246.7L624.8 244.9L618.4 244.6L606.3 242.3L600.8 240.1L593.5 230.4L590.4 224.9L589.1 225.3H586.6L585.1 223.2L585.4 220.7L587.9 215.9L587.8 213.3L586.7 207.8L585.5 205.2L582.9 204.6L580.2 204.9L575.5 206.2L572.3 204L573.9 198.3L578 194.6L584.4 194.1L586.9 192.9L589.4 191.3L612.5 182.4L613.7 179.8L613 176.6L613.5 174.1L619 158.6L619.7 155.2L620.8 151.9L622.5 150.2L624.9 149.3L630.6 148.3L632.9 149.8L636.9 150.8L646.9 144.1L652.1 147.7L656.4 151.9L657.4 154.8L658.6 161L658.7 164.1L659.1 166.8L660.7 169.3L662.1 172.3L662.6 175.6L662.7 181L665 193.4L674.1 216L674.5 222.5L671.9 234.4L673.9 237.1L677.6 237.6L676 238.8L674.8 240.5L673 242.5L665.9 246.6L662.2 251.6L659.8 253.5L654 255.3L651.8 257.2L649.5 262.9L646.9 272L645.7 274.9L641.8 280.5L641.5 282.6L649.6 286.1L652 291.5L652.8 297.5L658.2 300.1L663.1 303.2L664.7 307.8L664.5 318.5L664.8 320.8L664.6 323L656 327.4L655.6 330L658.7 334.4L674.3 346.1L676.6 351.1L677.1 356.1L678.3 360.9L680.5 365.3L682.2 367.4L681.7 369.3Z" stroke="#BB5B01" stroke-width="2" stroke-linecap="round" stroke-linejoin="round"/>
<path d="M643.202 376.2L644.802 379.9L645.302 383.9L644.802 388.8L645.602 394.6L646.202 396.8L647.502 398.9L649.702 406.2V408.5L649.102 410.8L650.102 415.6L650.202 418.5L647.602 423.5L635.602 429.4L618.102 433.7L614.402 438.1L612.702 440.8L608.702 445.6L606.602 447.5L601.202 450.5L596.202 454.1L591.802 458.6L586.902 462.3L581.402 463.9L575.702 464.3L571.602 464L568.802 460L564.702 457.4L555.902 453.6L551.102 453.5L546.302 454.9L539.402 456.2L532.202 456.1L527.602 454.8L521.302 451.5L519.602 448.3L520.102 444.6L519.502 441.5L517.702 438.9L516.202 435.2L517.502 432L519.402 429.6L521.202 426.9L524.002 426L525.802 424.3L529.002 419.9L530.102 417.3L530.502 415.1L529.102 413.3L527.102 412L524.702 412.6L523.502 413.1L522.202 413.3L517.102 413.4L512.102 412.4L508.502 408.7L507.302 403.5L503.602 400.7L499.202 398.6L500.802 394.2L501.102 389.5L498.202 385.4L494.602 381.6L491.602 377.1V366.2L493.702 364.6L493.902 363.2V361.9L497.002 357.6L496.402 355L496.802 352V346.1L499.802 336L497.802 330.2L499.202 324.4L503.002 320.1L505.702 318.8L507.602 316.4L508.002 313.8L508.702 311.6L513.002 310.9L517.502 312L520.202 315.4L521.702 319.6L522.102 323.4L522.002 335.7L524.802 337.6L533.502 336L538.402 337.8L540.002 343L540.302 349.3L539.802 351.6L538.402 353.7L537.402 355.9L537.102 358.3L538.902 360.1L541.602 361L545.002 365L547.602 369.6L552.302 371.1L563.002 373.1L575.002 372.5L578.002 371.9L580.702 370.7L582.902 366L584.902 364.3L589.802 362.4L590.502 359.9L589.502 357.2L586.602 353L587.602 351.2L588.702 350.5L591.102 350L628.202 367.3L640.802 375.2L643.202 376.2Z" stroke="#BB5B01" stroke-width="2" stroke-linecap="round" stroke-linejoin="round"/>
<path d="M571.601 464.001L569.501 467.301L566.401 469.301L564.301 469.401L562.201 469.101L559.901 468.401L557.701 468.001L556.001 467.101L552.201 465.801L550.401 466.601L549.101 468.301L548.301 470.301L548.001 472.701L552.001 477.801L552.301 481.701L552.101 483.001L552.701 484.401L553.001 486.501L551.401 487.801L540.401 495.201L537.801 497.401L523.401 486.601V487.101L520.601 487.301L512.301 487.001L506.801 485.801L491.501 480.701L481.501 481.801L477.301 485.401L476.001 490.801L477.801 496.301L481.401 504.201L481.901 506.801L480.901 508.101L480.301 508.001L479.401 507.701L478.501 507.201L476.701 505.801L473.101 503.801L471.401 501.901L469.201 501.301L466.801 501.001L464.401 500.301L460.301 498.201L458.301 497.501L451.901 496.401L450.601 495.901L446.801 493.601L444.201 492.901L438.801 492.301L436.201 491.701L432.601 490.401L427.701 489.901L423.901 488.901L422.901 488.701L421.701 488.601L411.001 489.601L397.601 488.501L395.101 488.701L379.801 493.901L375.901 496.301L375.801 496.701L375.301 497.001L373.801 498.301L371.201 499.901L369.401 500.701L368.801 500.501L368.901 497.301L369.801 494.201L371.101 492.101L372.101 489.701L373.201 478.401L372.901 473.401L369.301 466.901L371.101 462.001L371.801 459.401L382.701 457.701L393.401 454.801L403.101 449.901L406.501 446.201L409.101 441.901L412.401 432.801L415.901 417.301L415.701 409.801L415.901 405.001L417.601 396.801L419.001 394.301L419.901 394.001L420.801 393.401L421.001 392.001L420.801 390.401L423.001 389.401L424.101 391.401L425.901 392.401L428.301 392.201L430.201 393.701L431.501 393.901H432.701L435.301 395.001L437.901 393.901L440.801 388.501L445.501 387.701L447.901 390.001L448.601 391.801V393.701L451.001 395.701L454.001 397.501L454.801 406.501L456.801 413.901L462.801 410.601L467.101 404.401L469.201 402.501L471.601 403.501L478.401 405.401L481.501 409.301L483.001 410.801L484.001 412.501L485.801 414.301L488.801 414.001L492.001 410.701L494.401 406.401L496.401 401.801L499.201 398.601L503.601 400.701L507.301 403.501L508.501 408.701L512.101 412.401L517.101 413.401L522.201 413.301L523.501 413.101L524.701 412.601L527.101 412.001L529.101 413.301L530.501 415.101L530.101 417.301L529.001 419.901L525.801 424.301L524.001 426.001L521.201 426.901L519.401 429.601L517.501 432.001L516.201 435.201L517.701 438.901L519.501 441.501L520.101 444.601L519.601 448.301L521.301 451.501L527.601 454.801L532.201 456.101L539.401 456.201L546.301 454.901L551.101 453.501L555.901 453.601L564.701 457.401L568.801 460.001L571.601 464.001Z" stroke="#BB5B01" stroke-width="2" stroke-linecap="round" stroke-linejoin="round"/>
<path d="M729.6 291.7L730.5 298.4L724.9 307.5L724.8 310.9L726.3 314.3L728.7 317.2L731.6 319.2L734.9 320.5L737.6 322.4L742.7 330.6L748.1 334L747.3 340.7L747.7 350.9L746.6 354.1L743.8 356.4L729.7 364.8L723.3 367.7L716.3 368.8L689.7 369.9L681.7 369.3L682.2 367.4L680.5 365.3L678.3 360.9L677.1 356.1L676.6 351.1L674.3 346.1L658.7 334.4L655.6 330L656 327.4L664.6 323L664.8 320.8L664.5 318.5L664.7 307.8L663.1 303.2L658.2 300.1L652.8 297.5L652 291.5L649.6 286.1L641.5 282.6L641.8 280.5L645.7 274.9L646.9 272L649.5 262.9L651.8 257.2L654 255.3L659.8 253.5L662.2 251.6L665.9 246.6L673 242.5L674.8 240.5L676 238.8L677.6 237.6L688.1 234.9L698.5 240L703.3 243.7L707.5 248.2L711.2 253.2L719.1 261.3L720.7 263.3L721.2 265.9L720.2 283.6L720.8 289.2L721.4 291.5L726.8 292L729.6 291.7Z" stroke="#BB5B01" stroke-width="2" stroke-linecap="round" stroke-linejoin="round"/>
<path d="M410.801 561.6L411.601 564.7L414.501 570.8L416.601 573.4L419.101 575.8L422.001 577.8L424.801 579.2L427.901 578.9L430.101 577.2L432.901 576.5L436.001 578L437.901 581L438.801 584.7L438.701 588.4L436.101 595.5L431.101 596L428.601 595.8L426.101 597.3L429.101 607.1V612.5L425.801 622.6L427.101 624.6L427.201 625.7L428.101 628.9L428.201 631.2L428.801 633.6L428.901 635.9L427.401 638.1L425.601 640.2L425.101 644L426.001 648L423.901 649L421.201 646.5L419.601 645.4L417.601 644.4L413.901 645.6L408.901 641.9L405.301 642L401.701 642.6L401.501 642.3L401.001 642L400.201 641.8L399.801 641L398.501 640.2L397.701 640.1L395.701 640.7L393.501 640.4L391.901 638.5L391.101 636.1L389.801 634L388.901 631.8L389.301 629.2L387.501 627.8L387.201 626L386.001 625.2L384.901 626.1L383.701 626.3L383.101 625.4L383.401 624.4L383.501 623.1V621.6L384.001 621.4L384.501 620.8L384.301 620L383.901 619.3L381.501 613.8L379.901 611.6L378.801 611L376.201 610.5L375.101 610L374.401 608.1L376.501 602.4L380.701 597.8L381.001 592.7L378.701 591.7L376.301 591.1L371.901 589.3L367.901 589.4L366.901 589L367.001 586.5L366.301 584.4L368.301 580.4L370.901 578.7L371.001 579.4L371.101 580L371.401 581.1L371.901 581.6L373.101 583.4L375.001 584.2L378.401 581.6L381.201 578.1L387.601 573.7L391.301 570.2L395.701 564.5L397.101 563.3L399.401 562.4L401.901 560.5L404.601 559.1L408.301 559.3L410.801 561.6Z" stroke="#BB5B01" stroke-width="2" stroke-linecap="round" stroke-linejoin="round"/>
<path d="M313.998 435.001L317.398 434.301L318.698 434.501L319.198 434.901L321.998 436.801L323.598 437.101L324.798 437.701L325.698 438.701L327.598 441.901L327.698 443.301L327.798 443.901L328.998 446.301L329.198 446.901L329.598 447.001L329.898 447.701L329.998 448.401L330.198 450.601L331.198 454.301L332.898 457.801L333.498 458.101L340.998 463.801L341.898 464.801L344.898 469.601L347.698 472.701L348.698 473.101V473.601L349.798 474.501L350.098 475.001L351.398 473.701L351.898 471.701L352.698 469.801L353.698 469.001L354.698 469.601L355.098 468.401L354.898 466.701L356.098 465.501L357.698 464.901L359.898 462.801L360.898 459.701L365.598 459.601L368.398 459.901L371.098 459.401H371.798L371.098 462.001L369.298 466.901L372.898 473.401L373.198 478.401L372.098 489.701L371.098 492.101L369.798 494.201L368.898 497.301L368.798 500.501L369.398 500.701L371.198 499.901L373.798 498.301L375.298 497.001L375.798 496.701L375.898 496.301L379.798 493.901L395.098 488.701L397.598 488.501L410.998 489.601L421.698 488.601L422.898 488.701L423.898 488.901L423.498 493.301L423.698 497.401L424.598 501.201L426.898 504.501L429.098 506.801L430.598 509.501L430.898 512.301L430.698 521.101L431.898 530.301L432.798 533.201L435.298 534.601L438.098 534.201L439.998 535.501L438.498 538.201L437.598 540.401L437.398 542.901L436.098 549.001L432.898 554.201L422.898 559.701L421.698 562.701L421.498 566.201L419.398 566.801L416.998 565.701L413.698 563.001L410.798 561.601L408.298 559.301L404.598 559.101L401.898 560.501L399.398 562.401L397.098 563.301L395.698 564.501L391.298 570.201L387.598 573.701L381.198 578.101L378.398 581.601L374.998 584.201L373.098 583.401L371.898 581.601L371.398 581.101L371.098 580.001L370.998 579.401L370.898 578.701L368.298 580.401L366.298 584.401L361.198 589.301L359.398 592.901L357.698 600.401L355.198 602.801L353.298 603.101L351.298 602.701L349.598 602.601L348.898 602.801V601.701L348.798 600.601L347.298 596.201L346.998 593.001L347.298 583.201L346.898 579.201V577.901L347.798 575.001L349.698 570.701L349.898 570.001V566.701V565.901L350.598 564.101L350.898 560.101L351.898 557.301L352.198 555.901L352.098 554.501L351.898 553.801L350.698 551.101L350.498 550.501L348.498 549.901L347.498 549.301L347.298 548.001L346.398 546.901L345.298 546.001L343.298 546.201L340.198 547.501L336.398 548.201L335.398 546.701L335.098 545.301L334.098 543.901L332.398 539.701L330.498 538.001L328.898 537.801L325.998 538.501L324.298 538.401L322.098 535.901L319.598 534.201L318.498 533.201L317.698 531.901L316.198 532.201L314.698 533.201L311.198 534.601L307.698 534.701L305.798 532.101L306.698 528.801L306.098 527.001L303.598 526.201L303.898 524.701L302.598 523.901L301.098 524.201L299.798 523.501L295.098 518.401L291.298 512.501L291.798 509.501L289.498 508.401L283.398 509.501L279.998 508.501L273.998 505.601L272.798 504.501L271.698 504.601L269.198 502.301L268.098 499.001L268.698 495.801L270.898 493.001L272.598 492.001L272.698 490.301L271.598 489.501L270.198 489.301L267.298 489.601L264.598 490.201L262.598 491.501L261.098 490.901L260.998 487.701L262.498 485.601L261.998 481.001L256.898 477.801L253.798 475.001L253.098 473.601L251.698 472.401L250.598 471.101L248.398 466.701L248.898 464.201L257.598 453.401L260.998 450.301L263.998 451.501L267.798 455.201L275.398 458.101L282.898 459.901L293.398 460.401L301.698 462.301L304.198 461.801L305.798 459.901L306.498 457.701L307.698 449.801L310.798 439.101L313.998 435.001Z" stroke="#BB5B01" stroke-width="2" stroke-linecap="round" stroke-linejoin="round"/>
<path d="M188.199 488.301L193.099 488.001L198.099 488.501L202.299 487.601L204.299 486.801L206.399 486.301L206.499 486.901L206.999 486.301L211.299 485.901L214.299 484.701H217.399L218.999 487.401L221.299 488.901L225.599 488.301L226.799 488.501L224.999 494.801L222.699 496.901L219.799 498.201L216.299 502.901L215.699 512.101L214.899 515.401L215.299 519.401L221.299 535.601L221.199 538.701L217.499 539.701L214.199 541.401L212.899 545.001L212.199 548.601L212.299 554.401L211.999 556.401L212.199 558.201L211.999 559.801L211.199 560.401L209.199 560.201L208.299 559.801L204.399 557.301L201.599 556.101L198.599 557.001L195.399 559.501L193.299 563.101L192.799 565.001L191.599 566.701L188.699 568.201L187.499 566.701L184.399 567.001L182.999 567.401L181.799 568.001L180.099 567.901L178.499 567.401L175.899 568.901L173.699 568.801L173.299 567.701L173.099 566.401L172.399 564.501L171.499 562.601L168.999 560.501L165.499 560.601L162.599 562.401L159.499 562.801L158.899 559.401L157.299 556.101L151.999 558.701L157.199 531.101L156.699 529.001L155.299 527.101L153.999 524.701L152.399 522.601L150.299 521.301L148.699 519.601L148.799 517.301L150.099 515.401L150.799 513.201L151.199 511.001L151.399 506.001L152.699 502.501L157.799 503.901L161.699 501.101L161.599 499.401L162.299 498.701L163.099 498.101L164.499 496.101L166.099 494.401L168.499 495.301L170.599 497.201L173.299 501.701L176.399 502.301L177.999 500.701L180.199 499.101L180.599 498.701L181.099 498.001L181.699 497.401L181.899 497.701L183.199 496.601L184.599 495.701L185.899 495.201L187.599 494.901L187.999 494.501L188.599 493.501L188.799 490.901L188.199 488.301Z" stroke="#BB5B01" stroke-width="2" stroke-linecap="round" stroke-linejoin="round"/>
<path d="M392.502 704.901L390.202 705.501L387.802 705.801L383.802 704.601L374.302 705.601L363.602 704.801L355.602 699.601L355.102 698.601L353.302 697.301L352.602 696.501L352.502 693.801L353.602 691.401L354.202 686.001L351.102 682.701L348.302 683.401L345.602 683.201L345.102 681.501L347.502 669.501L348.302 666.801L353.402 662.801L359.302 661.201L362.502 662.501L365.502 661.701L368.502 655.601L369.502 652.401L372.402 650.601L375.802 649.801L379.302 649.401L386.102 650.901L389.202 649.801L392.402 649.201L394.002 650.601L397.802 652.501L399.902 653.001L402.802 655.601L403.802 664.101L403.102 667.601L402.402 668.701L403.202 670.101L403.802 672.101V674.201L404.102 676.301V678.301L403.502 680.101L402.502 681.701L401.802 683.701L400.902 685.601L398.002 688.801L392.502 704.901Z" stroke="#BB5B01" stroke-width="2" stroke-linecap="round" stroke-linejoin="round"/>
<path d="M226.798 488.5L227.598 489.1L227.998 490.4L229.598 491L234.298 489.6L239.298 492.8L242.298 493L244.198 493.4L247.398 492.9L247.998 493.1L248.698 492.9L249.598 491.1L250.098 488.6L251.698 486.7L254.398 485.8L262.498 485.6L260.998 487.7L261.098 490.9L262.598 491.5L264.598 490.2L267.298 489.6L270.198 489.3L271.598 489.5L272.698 490.3L272.598 492L270.898 493L268.698 495.8L268.098 499L269.198 502.3L271.698 504.6L272.798 504.5L273.998 505.6L279.998 508.5L283.398 509.5L281.998 511.7L280.198 512.4L278.098 511.5L276.098 512.6L275.398 514L274.398 515.3L272.398 516.4L269.198 520L268.198 522.2L266.798 529.4L262.598 539.2L254.698 545.9L250.398 544.2L248.798 539L246.898 535.2L243.098 534.1L237.698 534.4L229.398 533.8L226.598 533.9L221.298 535.6L215.298 519.4L214.898 515.4L215.698 512.1L216.298 502.9L219.798 498.2L222.698 496.9L224.998 494.8L226.798 488.5Z" stroke="#BB5B01" stroke-width="2" stroke-linecap="round" stroke-linejoin="round"/>
<path d="M396.999 391.5L395.199 391L393.299 391.6L392.799 390.4L393.599 388.1L393.799 387L392.499 385.3L391.499 384.7L389.999 382.3L390.599 379.5L394.799 376.5L395.199 375L395.399 373.4L396.199 372.2L397.299 371.2L398.999 369.2L398.599 366.8L396.299 365.7L395.199 363.7L395.799 361.6L394.199 360.2L391.399 359.4L389.899 357.4L391.599 356.1L393.899 355.9L395.899 354.3L395.999 351.5L394.599 339.2L390.899 336.6L379.699 336.8L374.099 336.1L368.599 333.8L365.299 329.4L367.099 327.2L369.499 325.6L371.599 323.1L373.999 321.2L376.499 319.5L378.399 317.1L378.499 314.5L376.299 312.9L370.899 310.9L369.199 309.2L370.199 306.5L370.099 300.3L365.899 296.8L363.299 297.5L362.099 297.2L361.599 291L360.899 289.5L358.599 288.5L355.899 288.3L353.399 289.4L353.699 292.4L351.999 293.7L349.099 293.2L346.199 293.7L340.699 296.3L338.299 295.9L337.399 293.5L335.399 292.1L329.999 293.3L320.999 300.2L316.999 304.5L315.399 307.1L313.399 309.3L310.799 309.7L309.499 307.1L307.699 304.7L305.199 302.9L304.699 300.3L304.999 298.8L305.499 297.8L305.599 296.8V294.7L305.799 293.8L306.899 291.2L307.199 289.5L307.299 288.5L307.199 287.6L305.899 283.8L305.799 281.8L306.299 275.4L306.899 273.4L308.399 271.7L309.899 271L313.399 269.8L314.499 268.8L314.799 267.8V266.8L314.899 265.8L315.499 264.8L316.299 264.3L318.099 263.6L318.899 263.1L319.799 261.9L321.199 259L322.099 257.9L323.599 257.3L325.199 257.5L330.199 259.3L331.899 259.7H333.599L338.599 258.2L339.399 258.1L340.599 258.3L341.299 258.1L341.999 257.8L348.299 255.3L349.699 254.5L350.799 253.5L351.799 252.2L352.599 250.5L353.999 243.6L354.799 241.3L356.399 239.3L361.699 235.9L363.299 234.4L364.499 232.1L367.899 233.8L369.799 234.3L373.799 234.4L375.399 235.6L376.299 237.4L376.099 238.9L374.899 239.8L372.799 242.1L372.899 244.2L378.499 245.7L381.099 247.3L384.999 251.4L387.599 251.7L389.999 250.4L391.899 248.4L391.799 246.2L390.499 244.2L391.799 240.1H397.599L400.299 241.1L402.399 240L402.799 237.2L403.999 234.7L408.799 231.9L414.299 233L417.199 234.3L419.799 236.2L421.299 238.3L423.499 239.2L429.599 236.7L432.199 232.7L437.499 232.2L446.399 225.6L456.999 222.1L459.699 223.4L459.599 226.3L458.199 228.9L457.799 231.6L459.399 234.1L461.799 235.8L467.199 237.7L469.599 239.6L471.499 242.2L476.799 244.2L482.499 245.8L490.299 254.1L491.799 264.8L490.299 270.7L491.499 279.9L490.399 282.8L487.199 283.6L485.599 285.8L489.799 289.2L495.799 290L499.199 294L500.599 294.8L503.799 295.5L505.399 295.2L504.499 300.2L501.999 304.8L502.999 306.8L505.299 308.1L507.099 309.7L508.699 311.6L507.999 313.8L507.599 316.4L505.699 318.8L502.999 320.1L499.199 324.4L497.799 330.2L499.799 336L496.799 346.1V352L496.399 355L496.999 357.6L493.899 361.9V363.2L493.699 364.6L491.599 366.2V377.1L494.599 381.6L498.199 385.4L501.099 389.5L500.799 394.2L499.199 398.6L496.399 401.8L494.399 406.4L491.999 410.7L488.799 414L485.799 414.3L483.999 412.5L482.999 410.8L481.499 409.3L478.399 405.4L471.599 403.5L469.199 402.5L467.099 404.4L462.799 410.6L456.799 413.9L454.799 406.5L453.999 397.5L450.999 395.7L448.599 393.7V391.8L447.899 390L445.499 387.7L440.799 388.5L437.899 393.9L435.299 395L432.699 393.9H431.499L430.199 393.7L428.299 392.2L425.899 392.4L424.099 391.4L422.999 389.4L420.799 390.4L418.499 390.9L417.099 388.3L414.299 387.3L411.899 390.6L410.299 391.9L408.399 391.1L406.299 390.7H404.199L396.999 391.5Z" stroke="#BB5B01" stroke-width="2" stroke-linecap="round" stroke-linejoin="round"/>
<path d="M432.198 232.7L426.998 228.2L425.898 224.3L426.398 220.5L427.598 216.8L429.998 214L433.498 213.1L437.798 210.9L441.098 210.1L440.898 207.1L438.998 202.3L438.298 201.3L437.998 200.1L438.398 198.7L438.498 197.2L438.198 194.7L436.598 189.7L436.998 173.5L436.298 166L437.198 162.5L442.998 158.4L456.298 153.4L459.098 150.8L461.598 143.3L463.398 140L466.898 139L470.598 138.9L474.398 145.8L474.998 147.1V148.3L475.298 149.3L476.598 150.1L477.498 148.6L478.798 144.8L481.098 141.4L484.898 139.4L489.398 138.5L493.898 139.2L498.798 140.5L500.598 141.3L500.898 143.3L500.798 146.3L501.498 149L503.298 150.4L505.298 151.5L507.198 152.8L508.198 154.9L508.098 157.6L508.698 159.9L512.898 161.4L517.698 161.9L520.898 165.9V173L520.598 174.4L519.798 175.4L519.098 176.6L520.198 178.3L520.898 178.9L521.698 179.2L523.498 178.5L526.598 178L527.198 178.3L527.698 180.2L527.798 182.2H532.498L535.198 180.3L538.698 180.7L539.498 183L540.698 187.6L540.498 190.2L539.598 192.7L539.198 194.5L538.598 196.3L535.798 200.4L534.798 205.1L535.998 206.2L539.298 205.9L541.298 206.2L542.198 206.8L543.898 211.2L544.998 212.9L547.098 215.1L548.798 216.2L549.798 216.5L551.498 217.5L550.798 219.3L544.098 225.4L542.898 227.5L542.198 229.8L542.098 230.9L542.198 233L541.998 234L536.298 236.3L534.898 236.6L533.598 236L532.398 235.2L527.398 237.5L519.598 245.7L516.598 250.1L514.598 252.3L511.898 253.6L507.398 253.9L505.098 258.7L504.598 264.5L504.798 271L506.998 276.9L510.398 281L510.998 286.3L508.798 291.4L505.398 295.2L503.798 295.5L500.598 294.8L499.198 294L495.798 290L489.798 289.2L485.598 285.8L487.198 283.6L490.398 282.8L491.498 279.9L490.298 270.7L491.798 264.8L490.298 254.1L482.498 245.8L476.798 244.2L471.498 242.2L469.598 239.6L467.198 237.7L461.798 235.8L459.398 234.1L457.798 231.6L458.198 228.9L459.598 226.3L459.698 223.4L456.998 222.1L446.398 225.6L437.498 232.2L432.198 232.7Z" stroke="#BB5B01" stroke-width="2" stroke-linecap="round" stroke-linejoin="round"/>
<path d="M360.9 459.701L357.5 459.301L355.6 456.101L355.2 454.701L354.5 400.001L354.8 397.901L356.6 397.001L370.6 396.401L375.2 397.901L382.3 404.801L385.9 406.801L386.3 406.701L397 391.501L404.2 390.701H406.3L408.4 391.101L410.3 391.901L411.9 390.601L414.3 387.301L417.1 388.301L418.5 390.901L420.8 390.401L421 392.001L420.8 393.401L419.9 394.001L419 394.301L417.6 396.801L415.9 405.001L415.7 409.801L415.9 417.301L412.4 432.801L409.1 441.901L406.5 446.201L403.1 449.901L393.4 454.801L382.7 457.701L371.8 459.401H371.1L368.4 459.901L365.6 459.601L360.9 459.701Z" stroke="#BB5B01" stroke-width="2" stroke-linecap="round" stroke-linejoin="round"/>
</svg>
